<?xml version="1.0" encoding="UTF-8"?>
<svg id="Layer_2" data-name="Layer 2" xmlns="http://www.w3.org/2000/svg" viewBox="0 0 25.42 20.48">
  <defs>
    <style>
      .cls-1 {
        fill: #e1f0fc;
      }

      .cls-2 {
        fill: #31ae79;
      }
    </style>
  </defs>
  <g id="Layer_1-2" data-name="Layer 1">
    <g>
      <path class="cls-2" d="M25.42,14.74v-2.82c0-3.16-2.5-5.74-5.55-5.74H5.55c-3.05,0-5.55,2.58-5.55,5.74v2.82c0,3.16,2.5,5.74,5.55,5.74h14.31c3.05,0,5.55-2.58,5.55-5.74ZM7.48,17.55c-2.2,0-4.01-1.8-4.01-4.01v-.42c0-2.2,1.8-4.01,4.01-4.01h10.46c2.2,0,4.01,1.8,4.01,4.01v.42c0,2.2-1.8,4.01-4.01,4.01H7.48Z"/>
      <path class="cls-1" d="M12.73,10.92c.6,0,1.11.21,1.54.64s.64.94.64,1.54-.21,1.12-.64,1.56-.94.66-1.54.66-1.16-.21-1.59-.64c-.43-.43-.64-.96-.64-1.59s.21-1.15.64-1.56c.43-.41.96-.62,1.59-.62Z"/>
      <path class="cls-2" d="M22.1,8.56v-2.82c0-3.16-2.5-5.74-5.55-5.74h-7.68C5.82,0,3.32,2.58,3.32,5.74v2.82h3.47v-1.62c0-2.2,1.8-4.01,4.01-4.01h3.82c2.2,0,4.01,1.8,4.01,4.01v1.62h3.47Z"/>
    </g>
  </g>
</svg>