<?xml version="1.0" encoding="UTF-8"?>
<svg id="Layer_2" data-name="Layer 2" xmlns="http://www.w3.org/2000/svg" viewBox="0 0 19.13 25.42">
  <defs>
    <style>
      .cls-1 {
        fill: #e1f0fc;
      }

      .cls-2 {
        fill: #31ae79;
      }
    </style>
  </defs>
  <g id="Layer_1-2" data-name="Layer 1">
    <g>
      <path class="cls-2" d="M13.4,0h-7.66C2.58,0,0,2.5,0,5.55v14.31c0,3.05,2.58,5.55,5.74,5.55h7.66c3.16,0,5.74-2.5,5.74-5.55V5.55c0-3.05-2.58-5.55-5.74-5.55ZM16.2,17.94c0,2.2-1.8,4.01-4.01,4.01h-5.25c-2.2,0-4.01-1.8-4.01-4.01V7.48c0-2.2,1.8-4.01,4.01-4.01h5.25c2.2,0,4.01,1.8,4.01,4.01v10.46Z"/>
      <path class="cls-1" d="M5.15,17.42c0-.6.21-1.11.64-1.54s.94-.64,1.54-.64,1.12.21,1.56.64.66.94.66,1.54-.21,1.16-.64,1.59c-.43.43-.96.64-1.59.64s-1.15-.21-1.56-.64c-.41-.43-.62-.96-.62-1.59Z"/>
      <rect class="cls-2" x="5.09" y="5.96" width="8.95" height="2.98" rx="1.49" ry="1.49"/>
      <rect class="cls-2" x="5.09" y="10.6" width="8.95" height="2.98" rx="1.49" ry="1.49"/>
    </g>
  </g>
</svg>