<?xml version="1.0" encoding="UTF-8"?>
<svg id="Layer_2" data-name="Layer 2" xmlns="http://www.w3.org/2000/svg" viewBox="0 0 32.26 26.66">
  <defs>
    <style>
      .cls-1 {
        fill: #e1f0fc;
      }

      .cls-2 {
        fill: #31ae79;
      }
    </style>
  </defs>
  <g id="Layer_1-2" data-name="Layer 1">
    <g>
      <path class="cls-2" d="M13.05,8.13c.41.82.77,2.12.31,3.79-.59,2.11-2.57,3.54-4.76,3.54-2.77,0-5.11-2.17-5.18-4.94-.03-1.05.23-1.85.51-2.41.43-.84.11-1.88-.7-2.32-.78-.43-1.79-.19-2.3.57-.24.45-.54,1.09-.72,1.9-.17.77-.25,1.68-.18,2.79.3,4.37,4.09,7.69,8.47,7.69h0c4.67,0,8.49-3.82,8.49-8.49,0-1.31-.35-2.59-.8-3.6-.42-.84-1.42-1.2-2.24-.85-.88.37-1.31,1.43-.9,2.35Z"/>
      <path class="cls-1" d="M8.51,0c.59,0,1.09.21,1.51.63s.63.92.63,1.51-.21,1.1-.63,1.53-.92.65-1.51.65-1.13-.21-1.55-.63c-.42-.42-.63-.94-.63-1.55s.21-1.12.63-1.53c.42-.4.93-.61,1.55-.61Z"/>
      <path class="cls-2" d="M25.26,7.95l6.95,16.69c.46,1.86-2.11,2.86-3.2,1.12-.38-.6-1.59-3.38-1.59-3.38l-7.21-.05s-1.3,3.19-1.71,3.67c-1.13,1.33-3.61.44-3.11-1.44l6.86-16.38c.6-1.13,2.54-1.17,3.02-.22ZM26.4,19.45l-2.63-6.11-2.53,6.11h5.16Z"/>
    </g>
  </g>
</svg>