<svg width="28" height="45" viewBox="0 0 28 45" fill="none" xmlns="http://www.w3.org/2000/svg">
<path d="M16.398 22.92C16.0244 21.8736 16.0719 20.834 16.5543 19.8217C17.0366 18.8025 17.7976 18.1026 18.8506 17.729C19.8968 17.3553 20.9431 17.4028 21.9893 17.8716C23.0356 18.3404 23.7422 19.1016 24.1226 20.1548C24.5167 21.2555 24.4759 22.3153 23.9935 23.3277C23.5112 24.3468 22.7231 25.0532 21.6225 25.4473C20.5219 25.8414 19.4756 25.7938 18.4837 25.3046C17.4919 24.8154 16.7989 24.0206 16.4048 22.92H16.398Z" fill="#E0EFFB"/>
<path d="M25.5498 36.2642C24.8093 34.1987 22.5809 33.1048 20.4748 33.7299C16.0113 35.048 12.5532 35.2788 10.7868 30.3529L7.26083 20.5283C5.48764 15.5955 8.2935 13.5436 12.5804 11.7092C14.5982 10.8463 15.6172 8.59062 14.8767 6.52513L13.0152 1.34076C12.6348 0.28763 11.4798 -0.255789 10.4268 0.117903C2.27419 3.04628 -2.0059 12.1169 0.922231 20.2701L6.05835 34.5722C8.98649 42.7255 18.0562 47.0061 26.2088 44.0777C27.2618 43.6972 27.8053 42.5421 27.4317 41.489L25.5566 36.2572L25.5498 36.2642Z" fill="#2FAD78"/>
</svg>
