<svg width="35" height="47" viewBox="0 0 35 47" fill="none" xmlns="http://www.w3.org/2000/svg">
<path d="M24.5013 0H10.4987C4.72775 0 0 4.57428 0 10.1584V36.3338C0 41.9246 4.72106 46.4922 10.4987 46.4922H24.5013C30.2723 46.4922 35 41.9246 35 36.3338V10.1584C35 4.57428 30.2789 0 24.5013 0ZM29.637 32.8094C29.637 36.842 26.3403 40.139 22.308 40.139H12.6987C8.66644 40.139 5.36972 36.842 5.36972 32.8094V13.6828C5.36972 9.65019 8.66644 6.35322 12.6987 6.35322H22.308C26.3403 6.35322 29.637 9.65019 29.637 13.6828V32.8094Z" fill="#2FAD78"/>
<path d="M13.4677 31.8734C13.4677 30.7766 13.8622 29.8335 14.6446 29.0511C15.427 28.2686 16.3699 27.8742 17.4666 27.8742C18.5632 27.8742 19.5195 28.2686 20.3286 29.0511C21.1377 29.8335 21.5457 30.7766 21.5457 31.8734C21.5457 32.9701 21.1511 33.9866 20.3687 34.7757C19.5863 35.5581 18.6167 35.9526 17.4666 35.9526C16.3164 35.9526 15.3601 35.5648 14.6045 34.7757C13.8489 33.9932 13.4677 33.0237 13.4677 31.8734Z" fill="#E0EFFB"/>
</svg>
