<svg width="39" height="42" viewBox="0 0 39 42" fill="none" xmlns="http://www.w3.org/2000/svg">
<path d="M35.4488 11.6606C34.0533 10.3523 32.2621 9.46003 30.3032 9.18495C29.8403 9.09773 29.3572 9.0644 28.8608 9.0644H9.80812C9.31167 9.0644 8.82865 9.09773 8.34563 9.18495C6.38669 9.48016 4.60887 10.3523 3.22017 11.6606C1.2411 13.4319 0 16.0149 0 18.8731V32.191C0 37.5786 4.42103 42.0001 9.80812 42.0001H28.8608C34.2479 42.0001 38.6555 37.5786 38.6555 32.191V18.8731C38.6555 16.0149 37.4144 13.4319 35.4555 11.6606H35.4488ZM26.6537 14.519C27.2373 14.519 27.7874 14.5861 28.3241 14.7404C27.9618 15.2369 27.566 15.7199 27.1166 16.1694L22.4674 20.7987C20.7299 22.5364 17.9055 22.5364 16.168 20.7987L11.5188 16.1694C11.0693 15.7199 10.6735 15.2369 10.3314 14.7404C10.8681 14.5861 11.4182 14.519 12.0018 14.519H26.6537ZM33.2081 29.9906C33.2081 33.6068 30.2495 36.5455 26.6537 36.5455H12.0086C8.39256 36.5455 5.45418 33.6001 5.45418 29.9906V21.0739C5.45418 20.0407 5.69569 19.061 6.12505 18.2022C6.58795 18.8395 7.12461 19.4569 7.68815 20.0272L14.6048 26.9445C17.2212 29.541 21.4343 29.541 24.0372 26.9445L30.9741 20.0272C31.5443 19.4569 32.0743 18.8395 32.5372 18.2022C32.9666 19.061 33.2081 20.0407 33.2081 21.0739V29.9906Z" fill="#2FAD78"/>
<path d="M15.5377 3.76381C15.5377 2.73058 15.9067 1.84498 16.6447 1.10696C17.3826 0.368944 18.2681 0 19.3013 0C20.3344 0 21.2334 0.368944 21.9915 1.10696C22.7563 1.84498 23.132 2.73058 23.132 3.76381C23.132 4.79703 22.763 5.75667 22.025 6.49469C21.287 7.2327 20.3814 7.60165 19.2946 7.60165C18.2078 7.60165 17.3155 7.2327 16.6044 6.49469C15.8933 5.75667 15.5377 4.85071 15.5377 3.76381Z" fill="#E0EFFB"/>
</svg>
