<svg width="247" height="51" viewBox="0 0 247 51" fill="none" xmlns="http://www.w3.org/2000/svg">
<path d="M46.9568 39.3695C45.485 41.1626 43.5115 42.1127 40.8957 42.1127H39.4841C36.9353 42.1127 34.955 41.2496 33.5635 39.5234C32.1385 41.2496 30.145 42.1127 27.5961 42.1127H26.2313C24.6525 42.1127 23.2878 41.7649 22.1304 41.0624C21.7691 44.4545 20.4111 46.5016 18.0763 48.3883C15.9823 50.1145 13.9084 50.5964 10.811 50.5964C8.36916 50.5964 4.69635 49.4521 2.50873 46.3946C0.836245 44.0328 0 41.8384 0 38.6136C0 36.4994 0.0735994 34.4321 1.43166 32.0436C2.26791 30.5717 4.09426 29.9695 5.69316 30.5382C4.32841 32.9 3.63934 35.4423 3.63934 38.1654C3.63934 40.8884 4.42878 42.6548 6.00761 44.4479C7.49278 46.1071 9.61349 46.5553 10.8043 46.5553C13.3799 46.5553 15.0123 46.0935 16.4707 44.4008C17.6882 42.969 18.2904 41.7047 18.2904 39.4166V27.7549C18.2904 25.5871 20.0431 23.8275 22.2107 23.8141V33.0805C22.2107 36.4057 23.6824 38.0651 26.6327 38.0651H27.1345C30.078 38.0651 31.5565 36.4057 31.5565 33.0805V26.1358C31.5565 23.948 33.3294 22.1682 35.5237 22.1682V33.0805C35.5237 36.4057 36.9955 38.0651 39.9458 38.0651H40.4408C43.3844 38.0651 44.8629 36.4057 44.8629 33.0805V24.4364C44.8629 22.2486 46.6357 20.4688 48.8233 20.4688V32.6258C48.8233 36.2453 48.2212 37.8106 46.9568 39.3561V39.3695Z" fill="#E1EFFA"/>
<path d="M75.7434 38.0714H83.8516C85.0692 38.0714 85.9255 37.7371 86.4273 37.0747C86.929 36.4124 87.1765 35.2615 87.1765 33.6357C87.1765 29.22 85.31 25.8948 81.5704 23.6669C82.7076 21.5795 85.571 21.218 87.1832 22.9642C89.6117 25.607 90.8962 28.8319 91.05 32.6321C91.1103 34.559 90.7222 37.9245 89.5916 39.4566C88.3941 41.0891 86.9022 42.0992 84.534 42.0992H78.2923C76.2184 42.0992 74.847 39.9383 75.7367 38.0649L75.7434 38.0714Z" fill="#E1EFFA"/>
<path d="M126.909 28.8522C123.684 26.2563 119.804 26.5773 116.318 26.5572L113.682 26.5439H113.08V30.8996C113.067 31.0534 113.067 31.214 113.067 31.3746V33.0269C113.067 33.4484 113.04 33.8433 112.993 34.2046C112.987 34.2515 112.98 34.2981 112.967 34.3382C112.585 36.7334 111.067 37.9647 108.417 38.0383C108.33 38.0383 102.55 38.0383 102.55 38.0383V38.8279C102.55 40.6343 104.002 42.0928 105.802 42.1062C106.317 42.0928 110.103 42.0391 110.739 41.9588C111.368 41.8786 111.95 41.7583 112.284 41.6044C112.686 41.4237 113.007 41.2632 113.288 41.116C113.743 40.835 114.171 40.5005 114.559 40.1258C115.388 39.3296 116.024 38.3595 116.425 37.2823C116.807 36.2788 116.987 35.2081 117.027 34.1377C117.001 32.8798 117.021 30.0632 117.021 30.0632C117.021 30.0632 120.011 30.4981 121.001 30.7055C123.336 31.1872 125.022 33.1474 124.988 35.3686C124.955 37.6233 123.289 39.2223 121.028 39.0484C119.61 38.9413 118.646 38.6001 117.951 37.3624C117.061 38.3124 117.242 39.8848 117.295 40.0922C117.864 42.5074 120.894 42.5877 121.784 42.5877C124.186 42.5877 126.407 41.7045 127.845 39.8981C127.858 39.878 127.872 39.8581 127.885 39.838H127.892C128.24 39.3897 128.534 38.8945 128.782 38.3392C128.842 38.2054 128.895 38.0651 128.949 37.938C129.002 37.8109 129.056 37.6837 129.103 37.5499C129.424 36.6734 129.605 35.8035 129.558 34.5591C129.304 31.6086 128.454 30.0697 126.909 28.832V28.8522Z" fill="#E1EFFA"/>
<path d="M223.666 17.3514C225.131 28.7454 223.438 38.7341 217.29 43.7453C213.845 46.5553 208.613 49.8004 198.471 49.8004C205.322 47.4454 218.722 44.314 218.668 26.4904C218.641 17.1371 215.685 10.0052 214.828 10.4401C213.597 11.069 211.209 13.4975 210.373 18.977C209.162 26.932 212.179 32.813 214.153 35.7033C210.426 33.3683 207.496 28.4509 206.74 21.4928C206.359 17.9401 206.72 14.8357 207.844 10.9418C209.878 3.88334 213.885 0.685235 215.879 0.0295638C217.678 -0.559202 222.428 7.73044 223.659 17.3514H223.666Z" fill="#15B47A"/>
<path d="M205.556 30.3374C202.666 26.2428 198.746 25.3998 198.672 27.0725C198.599 28.6648 200.023 33.0938 204.88 37.0145C206.386 38.2322 209.262 39.3565 212.279 39.9988C212.106 40.3333 203.516 41.2697 198.13 36.3722C192.103 30.8927 192.149 22.5228 193.447 21.6263C195.16 20.4421 200.03 20.877 202.418 23.4796C205.636 26.9787 205.563 30.3374 205.563 30.3374H205.556Z" fill="#15B47A"/>
<path d="M173.678 38.3594V38.1053H179.023C182.301 38.1053 183.94 36.4326 183.94 33.0874V24.704C183.94 22.3221 185.874 20.3888 188.255 20.3888V33.2344C188.255 36.0778 187.406 38.3194 185.693 39.9585C184.121 41.4305 182.061 42.1663 179.518 42.1663H177.478C175.371 42.1663 173.671 40.4601 173.671 38.3526L173.678 38.3594ZM181.03 50.8039C179.391 50.8039 178.575 49.9675 178.568 48.2949C178.568 46.93 179.632 45.8394 180.997 45.8327C182.622 45.826 183.432 46.6422 183.432 48.288C183.432 49.9339 182.629 50.797 181.024 50.797L181.03 50.8039ZM187.406 50.8039C185.767 50.8039 184.951 49.9675 184.951 48.2949C184.951 46.93 186.014 45.8394 187.379 45.8327C189.005 45.826 189.814 46.6422 189.814 48.288C189.814 49.9339 189.011 50.797 187.406 50.797V50.8039Z" fill="#E1EFFA"/>
<path d="M89.5986 38.3594V38.1053H94.9439C98.222 38.1053 99.861 36.4326 99.861 33.0874V24.704C99.861 22.3221 101.794 20.3888 104.176 20.3888V33.2344C104.176 36.0778 103.326 38.3194 101.614 39.9585C100.042 41.4305 97.9811 42.1663 95.439 42.1663H93.3985C91.2912 42.1663 89.5919 40.4601 89.5919 38.3526L89.5986 38.3594ZM96.9509 50.8039C95.3118 50.8039 94.4956 49.9675 94.489 48.2949C94.489 46.93 95.5527 45.8394 96.9174 45.8327C98.5431 45.826 99.3526 46.6422 99.3526 48.288C99.3526 49.9339 98.5498 50.797 96.9442 50.797L96.9509 50.8039ZM103.326 50.8039C101.687 50.8039 100.871 49.9675 100.871 48.2949C100.871 46.93 101.935 45.8394 103.3 45.8327C104.925 45.826 105.735 46.6422 105.735 48.288C105.735 49.9339 104.932 50.797 103.326 50.797V50.8039Z" fill="#E1EFFA"/>
<path d="M71.8368 32.5385V33.3951C71.8368 36.272 70.9537 38.5132 69.1875 40.1189C67.6154 41.4972 65.5817 42.1797 63.1131 42.1797H51.1648C49.5525 42.1797 48.1744 41.1829 47.6191 39.7645C47.4519 39.3296 47.3515 38.8612 47.3515 38.3594V38.1052H62.7117C65.9295 38.1052 67.5284 36.4192 67.5284 33.0472V32.5856C67.5284 30.1168 66.5584 28.1964 64.6116 26.865C63.0796 25.828 61.1997 25.3129 58.9987 25.3129C57.2259 25.3129 55.4397 25.6273 53.6267 26.2629C53.6267 24.8913 53.8809 23.5397 54.3626 22.2819C54.8443 21.0174 55.5534 19.8401 56.4766 18.8298L61.6613 13.0825C63.5412 10.995 66.2239 9.79763 69.0337 9.79763L59.1459 20.9438H59.4403C63.2268 20.9438 66.2774 22.108 68.6256 24.4563C70.7597 26.5638 71.8301 29.2603 71.8301 32.532L71.8368 32.5385Z" fill="#E1EFFA"/>
<path d="M229.606 38.1386H231.941V42.1797H229.285C227.318 42.1797 225.565 42.0057 224.247 40.9553C223.953 40.7211 223.398 40.2461 222.996 39.4365C222.033 37.4762 222.535 35.8437 222.615 35.5761C223.023 34.2179 223.144 33.7496 223.144 33.7496C223.625 37.2353 226.442 38.1454 229.599 38.1454L229.606 38.1386Z" fill="#E1EFFA"/>
<path d="M234.603 20.9438C238.383 20.9438 241.447 22.1147 243.789 24.4563C245.93 26.5638 247 29.2602 247 32.5385V33.3951C247 36.272 246.11 38.5132 244.337 40.1189C242.765 41.4905 240.738 42.1797 238.263 42.1797H228.475C226.228 42.1797 224.408 40.3598 224.408 38.1118H237.861C241.073 38.1118 242.678 36.419 242.678 33.0403V32.5856C242.678 30.1101 241.708 28.2031 239.768 26.865C238.229 25.828 236.356 25.306 234.149 25.306C232.376 25.306 230.583 25.6273 228.777 26.2629C228.777 23.5198 229.793 20.8704 231.633 18.8298L236.811 13.0825C238.691 10.995 241.374 9.80416 244.183 9.80416L234.296 20.9438H234.603Z" fill="#E1EFFA"/>
<path d="M146.048 9.80416C148.43 9.80416 150.363 11.7378 150.363 14.1197V35.3755C150.363 37.7573 148.43 39.6907 146.048 39.6907V9.80416Z" fill="#E1EFFA"/>
<path d="M174.936 34.6528C174.989 35.8906 174.809 36.7672 174.488 37.6437C174.441 37.7708 174.387 37.8976 174.334 38.0314C174.28 38.1585 174.227 38.2991 174.166 38.4329C173.912 38.9882 173.624 39.4835 173.277 39.9318H173.27C173.27 39.9318 173.236 39.9718 173.223 39.9919C171.791 41.805 169.57 42.6815 167.169 42.6815C162.613 42.6815 162.693 38.7744 163.59 37.8243C164.506 38.8078 165.001 39.0284 166.419 39.1422C168.667 39.3094 170.34 37.7171 170.38 35.4624C170.413 33.2411 168.727 31.281 166.393 30.7993C165.403 30.5919 162.412 30.1567 162.412 30.1567C162.412 30.1567 162.385 32.9736 162.412 34.2314C162.365 35.3019 162.191 36.3722 161.81 37.3758C161.409 38.4463 160.773 39.4231 159.944 40.2192C159.549 40.5939 159.121 40.9284 158.659 41.2094C158.385 41.3566 158.064 41.5172 157.662 41.6978C157.328 41.845 157.087 41.9925 156.197 42.133C155.575 42.2333 154.023 42.1795 153.327 42.1996C153.2 42.1996 153.08 42.1999 152.953 42.1731C150.959 42.0527 149.387 40.4 149.387 38.3728V38.0448L153.896 38.0115C156.679 38.1252 157.957 36.7804 158.338 34.432C158.351 34.3919 158.358 34.3452 158.365 34.2984C158.412 33.9304 158.438 33.5355 158.438 33.1207V31.4683C158.438 31.3077 158.438 31.1469 158.445 30.993V26.6376H159.054L161.683 26.651C165.175 26.6644 169.049 26.3432 172.28 28.9391C173.825 30.1769 174.675 31.7157 174.922 34.6662L174.936 34.6528Z" fill="#E1EFFA"/>
</svg>
