<?xml version="1.0" encoding="UTF-8"?>
<svg id="Layer_2" data-name="Layer 2" xmlns="http://www.w3.org/2000/svg" viewBox="0 0 32.88 42.82">
  <defs>
    <style>
      .cls-1 {
        fill: #2fad78;
      }

      .cls-2 {
        fill: #deedf9;
      }
    </style>
  </defs>
  <g id="Layer_1-2" data-name="Layer 1">
    <g>
      <path class="cls-1" d="M22.5,10.86c0,.31-.02.63-.05.94.05-.42-.06.26-.09.38-.06.26-.13.51-.22.76-.05.14-.1.28-.16.42.16-.4-.04.06-.08.14-.13.23-.25.46-.38.67-.05.09-.56.74-.27.41-.19.22-.39.44-.6.65-.09.09-.69.6-.35.34-.44.34-.93.61-1.42.86-.34.17.32-.11-.04.02-.11.04-.21.08-.32.12-.32.11-.65.2-.98.27-.06.01-.53.09-.25.05.26-.04-.12,0-.14.01-.31.02-.63.03-.94.03-.16,0-.31-.02-.47-.03-.02,0-.4-.05-.14-.01.28.04-.19-.04-.25-.05-.19-.04-.37-.08-.55-.13-.29-.08-.58-.17-.85-.29.38.16-.23-.13-.33-.19-.23-.12-.45-.26-.66-.4-.12-.08-.24-.17-.36-.26.27.21,0,0-.11-.12-.19-.18-.37-.35-.55-.54-.1-.11-.2-.22-.29-.33.06.08.23.35-.03-.04-.14-.21-.29-.43-.42-.65-.07-.13-.14-.26-.21-.39-.04-.07-.25-.53-.08-.14-.22-.52-.36-1.08-.47-1.63-.05-.28,0,.02,0,.07-.02-.15-.03-.31-.04-.47-.02-.35-.02-.71,0-1.06,0-.12.02-.23.03-.35-.05.42,0,.03.02-.05.07-.3.13-.59.22-.88.03-.11.07-.21.11-.32.02-.06.2-.49.09-.23s.09-.16.11-.22c.09-.16.17-.33.27-.49.15-.25.31-.5.49-.73-.25.32,0,.02.04-.03.13-.13.25-.27.38-.4.1-.1.21-.2.32-.3.06-.06.45-.38.11-.12.23-.18.48-.34.73-.49.13-.08.26-.15.39-.22.05-.03.58-.28.32-.16s.18-.07.23-.09c.18-.06.36-.12.54-.17.29-.08.59-.15.89-.2-.41.07-.03,0,.05,0,.24-.01.47-.03.71-.03,1.3-.02,2.4-1.09,2.4-2.4S17.74-.02,16.44,0c-3.47.05-6.62,1.65-8.72,4.41s-2.64,6.2-1.75,9.38c1.88,6.75,9.98,10.02,16.01,6.42,3.29-1.97,5.26-5.53,5.32-9.34.02-1.3-1.12-2.4-2.4-2.4s-2.38,1.1-2.4,2.4h0Z"/>
      <path class="cls-1" d="M4.8,40.5c.08-6.35,5.23-11.64,11.64-11.64s11.56,5.29,11.64,11.64c.04,3.09,4.84,3.09,4.8,0-.08-6.91-4.35-12.98-10.8-15.43-6.27-2.39-13.86-.38-18.14,4.78C1.42,32.87.05,36.56,0,40.5c-.04,3.09,4.76,3.09,4.8,0h0Z"/>
      <path class="cls-2" d="M25.83,4.62c0,1.79-1.45,3.24-3.24,3.24s-3.24-1.45-3.24-3.24,1.45-3.24,3.24-3.24,3.24,1.45,3.24,3.24Z"/>
    </g>
  </g>
</svg>
