<svg width="75" height="71" viewBox="0 0 75 71" fill="none" xmlns="http://www.w3.org/2000/svg">
<path d="M30.708 25.3011C30.2402 33.9552 17.1885 34.0287 17.1885 25.3011C17.1885 16.5736 30.2402 16.6404 30.708 25.3011C30.9553 29.9287 38.1929 29.9554 37.9389 25.3011C37.5313 17.7288 31.8575 11.3184 23.9449 11.3184C16.0323 11.3184 9.95087 17.7088 9.95087 25.3011C9.95087 32.8935 15.9989 38.9567 23.3769 39.2505C31.51 39.5777 37.5112 33.1072 37.9323 25.3011C38.1795 20.6536 30.9486 20.6669 30.7014 25.3011H30.708Z" fill="#00B77A"/>
<path d="M23.9449 63.5032C17.1684 63.5299 10.3919 63.5567 3.61541 63.5768L7.2309 67.1892C7.1908 45.5273 40.7659 45.6543 40.6656 67.3028C41.8685 66.1008 43.0781 64.8922 44.281 63.6902C37.5045 63.6301 30.7281 63.5633 23.9516 63.5032C19.2936 63.4632 19.2936 70.6883 23.9516 70.7284C30.7281 70.7885 37.5045 70.8552 44.281 70.9153C46.2391 70.9354 47.8898 69.2459 47.8965 67.3028C47.9566 54.2816 37.0167 43.1836 23.9516 43.1836C10.8865 43.1836 -0.0200822 54.2081 -3.34384e-05 67.1892C-3.34384e-05 69.1391 1.65063 70.8085 3.61541 70.8018C10.3919 70.7751 17.1684 70.7484 23.9449 70.7284C28.5962 70.7083 28.6096 63.4832 23.9449 63.5032Z" fill="#00B77A"/>
<path d="M58.4155 29.8619C58.0412 36.7732 47.6292 36.8266 47.6292 29.8619C47.6292 22.8906 58.0412 22.9507 58.4155 29.8619C58.6627 34.4895 65.9004 34.5162 65.6464 29.8619C65.2789 23.0308 60.1597 17.2481 53.0224 17.2481C45.885 17.2481 40.425 23.0175 40.3983 29.8619C40.3716 36.5662 45.8917 42.1553 52.5345 42.4491C59.859 42.7763 65.2722 36.86 65.6531 29.8619C65.9004 25.2144 58.6694 25.2277 58.4221 29.8619H58.4155Z" fill="#00B77A"/>
<path d="M49.1129 53.6739C58.0814 51.5171 67.09 57.7673 67.0565 67.3027C68.2595 66.1008 69.4691 64.8921 70.672 63.6902C64.7844 63.6368 59.4714 63.5834 53.5904 63.5299C48.9324 63.4899 48.9324 70.715 53.5904 70.7551C59.4781 70.8085 64.7911 70.8619 70.672 70.9153C72.6301 70.9353 74.2808 69.2459 74.2874 67.3027C74.3409 52.9728 60.661 43.4707 47.1882 46.7093C42.6639 47.7977 44.5819 54.769 49.1129 53.6806V53.6739Z" fill="#00B77A"/>
<path d="M47.5624 6.46388C47.5624 10.0364 44.662 12.9277 41.0933 12.9277C37.5247 12.9277 34.6242 10.0297 34.6242 6.46388C34.6242 2.89808 37.5247 0 41.0933 0C44.662 0 47.5624 2.8914 47.5624 6.46388Z" fill="#E0EFFB"/>
</svg>
