<svg width="25" height="45" viewBox="0 0 25 45" fill="none" xmlns="http://www.w3.org/2000/svg">
<path d="M24.9066 11.0099C25.0016 11.9595 25.0355 12.8821 24.9541 13.7842C24.9269 14.1302 24.7031 19.6722 21.0947 22.8061C16.8758 26.4691 15.7431 27.2559 13.8914 29.5216C12.1347 31.6719 11.9786 34.6972 11.9786 34.6972C11.9786 34.6972 9.8896 30.5933 10.2423 27.6561C10.7781 23.1724 15.1462 20.6015 16.9707 18.9328C17.9068 18.0781 19.7856 15.7378 19.2973 11.7221C18.836 7.92345 15.3565 5.23726 11.5581 5.71887C7.76656 6.20049 5.0806 9.65998 5.5554 13.4586C5.88097 16.0431 7.59027 18.112 9.84214 19.021C9.84214 19.021 2.96437 21.7682 0.536139 14.4626C-1.64113 7.9031 3.13399 2.11014 9.0689 0.482144C9.63865 0.319344 10.2287 0.197244 10.846 0.115844C17.7305 -0.752422 24.1198 3.29722 24.893 11.0166L24.9066 11.0099Z" fill="#2FAD78"/>
<path d="M8.60037 41.0465C8.60037 39.9815 8.98024 39.0725 9.73991 38.3128C10.4996 37.553 11.4084 37.1732 12.4733 37.1732C13.5382 37.1732 14.4607 37.553 15.2407 38.3128C16.0207 39.0725 16.4141 39.9815 16.4141 41.0465C16.4141 42.1114 16.0342 43.095 15.2746 43.8548C14.5149 44.6145 13.579 44.9944 12.4666 44.9944C11.3542 44.9944 10.4317 44.6145 9.69917 43.8548C8.96663 43.095 8.60037 42.1589 8.60037 41.0465Z" fill="#E0EFFB"/>
</svg>
