<svg width="33" height="31" viewBox="0 0 33 31" fill="none" xmlns="http://www.w3.org/2000/svg">
<path d="M32.8302 10.0839C32.8098 9.68933 32.7691 9.30156 32.7147 8.90698C32.1024 4.67546 28.6807 1.13105 24.5312 0.219435C22.2047 -0.290796 19.7014 0.103784 17.6198 1.2467C16.5314 1.84537 15.5791 1.37596 14.5519 0.960974C13.4227 0.505168 12.2459 0.171817 11.0282 0.0629672C9.10992 -0.100307 7.15076 0.314678 5.46374 1.2399C1.32101 3.51213 -0.529253 8.41716 0.130591 12.9616C0.185011 13.3358 0.252993 13.7168 0.341426 14.0841C0.531896 14.9277 0.797211 15.7577 1.12373 16.5604C2.89239 20.928 6.73584 24.0779 10.001 27.3433C10.5725 27.9148 11.1371 28.4795 11.7085 29.0509C14.3002 31.6497 18.511 31.6497 21.1095 29.0509C22.6809 27.493 24.2455 25.9215 25.8101 24.35C28.1774 21.9689 30.5174 19.6014 31.7691 16.4176C32.5582 14.4107 32.9527 12.2337 32.8302 10.0771V10.0839ZM27.5039 10.4037C27.81 15.227 23.8577 18.649 20.749 21.7308C20.1504 22.3227 19.5653 22.9349 18.9463 23.5132C17.4429 24.9078 15.0893 24.799 13.654 23.3227C10.4568 20.0504 6.1848 16.7986 5.45693 11.9207C5.13721 9.79138 5.70862 7.47833 7.57931 6.23337C9.13029 5.1993 10.9126 5.25372 12.5384 6.06329C13.4839 6.5327 14.4023 7.13137 15.4567 7.34227C16.5111 7.55316 17.6607 7.35587 18.6538 6.92047C19.9735 6.34221 21.1028 5.45781 22.5993 5.47822C25.2319 5.51224 27.3406 7.83889 27.5039 10.4105V10.4037Z" fill="#2FAD78"/>
<path d="M12.6468 14.0364C12.6468 13.0091 13.0142 12.1247 13.7488 11.3832C14.4835 10.6485 15.3678 10.2811 16.4018 10.2811C17.4357 10.2811 18.3269 10.6485 19.0888 11.3832C19.8507 12.1179 20.2316 13.0023 20.2316 14.0364C20.2316 15.0705 19.8642 16.0229 19.1296 16.7576C18.3949 17.4924 17.4834 17.8597 16.4086 17.8597C15.3338 17.8597 14.4359 17.4924 13.7216 16.7576C13.0073 16.0229 12.6536 15.1113 12.6536 14.0364H12.6468Z" fill="#E0EFFB"/>
</svg>
