<svg width="37" height="37" viewBox="0 0 37 37" fill="none" xmlns="http://www.w3.org/2000/svg">
<path d="M13.3072 0C5.95377 0 0 5.96097 0 13.3084C0 20.6558 5.96046 26.6167 13.3072 26.6167C20.654 26.6167 26.6145 20.6558 26.6145 13.3084C26.6145 5.96097 20.654 0 13.3072 0ZM13.3072 22.2029C8.39823 22.2029 4.4201 18.2245 4.4201 13.3151C4.4201 8.40563 8.39823 4.42719 13.3072 4.42719C18.2163 4.42719 22.1943 8.40563 22.1943 13.3151C22.1943 18.2245 18.2163 22.2029 13.3072 22.2029Z" fill="#2FAD78"/>
<path d="M32.982 30.6586L22.3459 20.0216L19.5377 22.8301L30.1738 33.4671L32.982 30.6586Z" fill="#2FAD78"/>
<path d="M35.6532 31.9758L28.0478 24.3698C26.8997 23.2215 25.0381 23.2215 23.89 24.3698L23.8852 24.3745C22.7371 25.5228 22.7371 27.3845 23.8852 28.5327L31.4906 36.1388C32.6388 37.287 34.5003 37.287 35.6485 36.1388L35.6532 36.134C36.8014 34.9858 36.8014 33.1241 35.6532 31.9758Z" fill="#2FAD78"/>
<path d="M9.75776 13.2816C9.75776 12.3171 10.0993 11.4933 10.7891 10.8034C11.4789 10.1135 12.3027 9.77197 13.2671 9.77197C14.2314 9.77197 15.0686 10.1135 15.7785 10.8034C16.4884 11.4933 16.8433 12.3171 16.8433 13.2816C16.8433 14.246 16.5018 15.1435 15.812 15.8267C15.1222 16.5166 14.2716 16.8581 13.2671 16.8581C12.2625 16.8581 11.4186 16.5166 10.7556 15.8267C10.0926 15.1368 9.75776 14.2862 9.75776 13.2816Z" fill="#E0EFFB"/>
</svg>
