<svg width="32" height="32" viewBox="0 0 32 32" fill="none" xmlns="http://www.w3.org/2000/svg">
<path d="M10.378 0C4.64437 0 0 4.64474 0 10.3788C0 16.1129 4.64437 20.7576 10.378 20.7576C16.1116 20.7576 20.7559 16.1129 20.7559 10.3788C20.7559 4.64474 16.1116 0 10.378 0ZM10.378 17.3092C6.54889 17.3092 3.4482 14.2082 3.4482 10.3788C3.4482 6.54942 6.54889 3.44847 10.378 3.44847C14.207 3.44847 17.3077 6.54942 17.3077 10.3788C17.3077 14.2082 14.207 17.3092 10.378 17.3092Z" fill="#004C6D"/>
<path d="M25.5801 23.7545L17.2684 15.4421L15.0712 17.6395L23.3829 25.9519L25.5801 23.7545Z" fill="#004C6D"/>
<path d="M31.1578 28.2751L21.8302 18.9467C21.1986 18.3151 20.1747 18.3151 19.5432 18.9467L18.5792 19.9107C17.9477 20.5423 17.9477 21.5663 18.5792 22.1979L27.9069 31.5264C28.5384 32.1579 29.5624 32.158 30.1939 31.5264L31.1579 30.5623C31.7894 29.9307 31.7894 28.9067 31.1578 28.2751Z" fill="#004C6D"/>
</svg>
