<svg width="97" height="77" viewBox="0 0 97 77" fill="none" xmlns="http://www.w3.org/2000/svg">
<path d="M30.708 30.8501C30.2402 39.5042 17.1885 39.5776 17.1885 30.8501C17.1885 22.1226 30.2402 22.1894 30.708 30.8501C30.9553 35.4776 38.1929 35.5044 37.939 30.8501C37.5313 23.2778 31.8575 16.8674 23.9449 16.8674C16.0323 16.8674 9.95089 23.2578 9.95089 30.8501C9.95089 38.4425 15.9989 44.5057 23.3769 44.7996C31.51 45.1268 37.5113 38.6562 37.9323 30.8501C38.1796 26.2026 30.9486 26.2159 30.7013 30.8501H30.708Z" fill="#00B77A"/>
<path d="M23.9449 69.0455C17.1684 69.0722 10.3919 69.099 3.61543 69.119L7.23092 72.7315C7.19082 51.0696 40.7659 51.1966 40.6656 72.8452C41.8686 71.6432 43.0782 70.4345 44.2811 69.2325C37.5046 69.1724 30.7281 69.1056 23.9516 69.0455C19.2936 69.0055 19.2936 76.2306 23.9516 76.2707C30.7281 76.3307 37.5046 76.3975 44.2811 76.4576C46.2392 76.4777 47.8898 74.7883 47.8965 72.8452C47.9567 59.824 37.0167 48.7259 23.9516 48.7259C10.8865 48.7259 -0.0200212 59.7504 2.75969e-05 72.7315C2.75969e-05 74.6814 1.65065 76.3509 3.61543 76.3442C10.3919 76.3175 17.1684 76.2907 23.9449 76.2707C28.5963 76.2506 28.6096 69.0255 23.9449 69.0455Z" fill="#00B77A"/>
<path d="M77.0943 69.9136C71.5675 69.9337 66.0407 69.9604 60.5139 69.9805L63.4611 73.1724C63.4277 54.0546 90.801 54.1681 90.7208 73.2725C91.7032 72.2107 92.6855 71.149 93.6679 70.0806C88.1411 70.0272 82.6144 69.9671 77.0876 69.9136C73.2917 69.8736 73.2917 76.2573 77.0876 76.2907C82.6144 76.3441 88.1411 76.4042 93.6679 76.4576C95.2651 76.471 96.6084 74.9819 96.6151 73.2658C96.6619 61.7738 87.7469 51.9779 77.0876 51.9779C66.4283 51.9779 57.5401 61.707 57.5601 73.1657C57.5601 74.8818 58.91 76.3642 60.5072 76.3575C66.034 76.3375 71.5608 76.3107 77.0876 76.2907C80.8835 76.2773 80.8902 69.8936 77.0876 69.9136H77.0943Z" fill="#00B77A"/>
<path d="M81.7924 35.4109C81.4181 42.3222 71.0061 42.3756 71.0061 35.4109C71.0061 28.4396 81.4181 28.4997 81.7924 35.4109C82.0397 40.0384 89.2772 40.0652 89.0233 35.4109C88.6557 28.5798 83.5366 22.797 76.3992 22.797C69.2619 22.797 63.8019 28.5665 63.7752 35.4109C63.7484 42.1152 69.2685 47.7041 75.9114 47.998C83.2359 48.3252 88.649 42.409 89.03 35.4109C89.2772 30.7634 82.0463 30.7767 81.799 35.4109H81.7924Z" fill="#00B77A"/>
<path d="M54.5661 45.1068C51.5588 43.8914 45.7848 41.601 42.7775 40.3857C40.3983 39.4241 38.7009 43.7578 41.08 44.7194C44.0873 45.9347 49.8614 48.2252 52.8687 49.4405C53.8711 49.8411 55.1141 49.1666 55.5752 47.998C56.0363 46.8294 55.5217 45.4807 54.5661 45.1068Z" fill="#00B77A"/>
<path d="M57.0254 30.9571C53.8711 30.917 47.8297 30.8768 44.6754 30.8434C42.1826 30.81 42.1826 35.9985 44.6754 36.0319C47.8297 36.072 53.8711 36.112 57.0254 36.1454C58.0746 36.1587 58.9635 34.9502 58.9635 33.5546C58.9635 32.1589 58.0212 30.9636 57.0254 30.9636V30.9571Z" fill="#00B77A"/>
<path d="M53.5837 17.5084C50.7568 18.4833 45.3437 20.3931 42.5168 21.3681C40.278 22.1427 41.9421 26.7701 44.1809 26.0022C47.0077 25.0273 52.4209 23.1175 55.2477 22.1426C56.19 21.8154 56.5911 20.4532 56.1433 19.2045C55.6956 17.9558 54.4725 17.1879 53.577 17.5084H53.5837Z" fill="#00B77A"/>
<path d="M55.7489 6.4638C55.7489 10.0363 52.8486 12.9278 49.2799 12.9278C45.7112 12.9278 42.8108 10.0296 42.8108 6.4638C42.8108 2.898 45.7112 0 49.2799 0C52.8486 0 55.7489 2.89132 55.7489 6.4638Z" fill="#E0EFFB"/>
</svg>
