<svg width="57" height="83" viewBox="0 0 57 83" fill="none" xmlns="http://www.w3.org/2000/svg">
<path d="M43.0186 51.6773C53.464 44.2652 58.8437 31.5179 54.5265 19.0109C50.6772 7.85942 39.8241 0 27.9887 0C16.1532 0 5.8882 7.39867 1.82497 18.0894C-3.00678 30.7834 2.12571 43.9247 12.8585 51.6172C16.0396 53.9009 19.9291 49.5071 18.0645 46.4154L18.0511 46.3954C16.1198 43.1835 10.9606 44.5057 10.9606 48.3119V58.5886C10.9606 60.6453 12.7048 62.3881 14.7631 62.3881H41.2074C43.2658 62.3881 45.0101 60.6453 45.0101 58.5886V48.3119C45.0101 45.6742 41.6753 43.2436 39.2828 45.0265L39.1692 45.1133C35.2864 48.0047 39.0756 54.6087 43.0119 51.6773L43.1255 51.5905C41.2142 50.4954 39.3095 49.4003 37.3982 48.3052C37.3982 51.7308 37.2177 51.3568 37.2177 54.7823H18.5657V48.3052C16.2 48.9462 13.8408 49.5873 11.4751 50.2216L11.4885 50.2417C13.226 48.5055 14.9569 46.776 16.6945 45.0399C0.909412 33.7215 7.75943 7.59234 27.9887 7.59234C48.2179 7.59234 55.0612 33.835 39.1759 45.1066C35.2129 47.9179 39.0155 54.5153 43.0186 51.6707V51.6773Z" fill="#00B77A"/>
<path d="M16.2067 72.4043H39.5635C45.0301 72.4043 45.0435 65.3662 39.5635 65.3662H16.2067C10.7401 65.3662 10.7267 72.4043 16.2067 72.4043Z" fill="#00B77A"/>
<path d="M20.9783 82.267H34.8319C39.2494 82.267 39.256 75.4092 34.8319 75.4092H20.9783C16.5608 75.4092 16.5542 82.267 20.9783 82.267Z" fill="#00B77A"/>
<path d="M34.7985 28.0255C34.7985 31.785 31.7512 34.8299 27.9887 34.8299C24.2262 34.8299 21.1787 31.785 21.1787 28.0255C21.1787 24.2661 24.2262 21.2211 27.9887 21.2211C31.7512 21.2211 34.7985 24.2661 34.7985 28.0255Z" fill="#E0EFFB"/>
</svg>
