<svg width="77" height="54" viewBox="0 0 77 54" fill="none" xmlns="http://www.w3.org/2000/svg">
<path d="M75.1094 35.8962C71.6677 48.2095 56.6913 58.5663 39.7434 51.0608C38.5605 50.5333 36.9833 49.5183 35.6467 48.7504C30.7749 45.9926 20.276 32.6575 15.3507 26.995C9.05539 19.7833 3.35483 11.7769 0 6.79547C4.48425 4.57186 9.91748 5.7271 13.1253 9.58671C13.1253 9.58671 20.7505 18.4811 24.3593 22.9885C28.2554 27.8564 38.0059 39.482 41.3941 41.0713C52.588 46.3331 63.7351 41.2783 65.613 31.903C66.1076 29.439 66.7424 23.743 64.2162 20.1572C62.0911 17.139 60.574 9.41977 64.0492 3.99094C76.152 15.9971 78.1235 25.1587 75.1161 35.9029L75.1094 35.8962Z" fill="#2FAD78"/>
<path d="M31.7506 11.9105L31.4966 10.2011C30.7949 5.66704 27.0725 2.18801 22.5014 1.81407C22.7086 6.12775 22.7821 10.7753 23.417 17.159C26.5379 21.3458 29.8794 25.1787 32.8065 27.8497C32.2852 22.0202 32.1716 16.5447 31.7506 11.9105Z" fill="#2FAD78"/>
<path d="M50.4896 3.38998C49.6609 1.82076 48.3511 0.779043 46.5734 0.278229C44.7623 -0.222585 43.0983 -0.0489371 41.5278 0.812463C39.9573 1.67386 38.9148 3.00937 38.3801 4.81898C37.9056 6.50839 38.1128 8.1711 39.035 9.74699C39.9239 11.3496 41.2605 12.3846 42.9512 12.8587C44.6754 13.3662 46.3061 13.1525 47.8765 12.2978C49.447 11.4364 50.4896 10.1343 50.9641 8.41149C51.4987 6.62859 51.3183 4.93917 50.4896 3.39666V3.38998Z" fill="#E0EFFB"/>
</svg>
