<svg width="24" height="24" viewBox="0 0 24 24" fill="none" xmlns="http://www.w3.org/2000/svg">
<path d="M12.1754 0.00393519L11.3225 0C11.2951 0.000810185 11.2698 0.0114583 11.2425 0.0125C4.70702 0.26169 -0.340181 5.86956 0.0179443 12.3958C0.372252 18.8539 5.93217 23.7962 12.3869 23.4494C18.8558 23.102 23.7988 17.5303 23.4491 11.0657C23.1243 5.06204 18.1908 0.203009 12.1754 0.00393519ZM12.2424 1.48125C12.2954 1.48067 12.3299 1.47269 12.3754 1.5044C12.5187 1.60428 12.7227 1.81169 12.8555 1.93808C14.2057 3.22211 15.2878 4.80104 16.0129 6.5191C14.7946 6.90509 13.5226 7.12326 12.2424 7.17292V1.48125ZM11.2246 1.48125V7.17292C10.3994 7.13958 9.57718 7.04016 8.77044 6.86852C8.32635 6.77407 7.88988 6.65023 7.45423 6.52488C8.17604 4.80023 9.26847 3.21238 10.623 1.92639C10.7522 1.8037 10.9524 1.60127 11.0915 1.50428C11.137 1.47257 11.1716 1.48056 11.2246 1.48113V1.48125ZM14.0928 1.73588C15.8145 2.14433 17.4261 3.00208 18.7192 4.20544C18.9059 4.37917 19.2349 4.67975 19.3781 4.87662C19.3861 4.8875 19.4085 4.91644 19.4007 4.92755C18.6308 5.41308 17.8217 5.84178 16.9724 6.17303C16.316 4.60579 15.388 3.16574 14.2491 1.90903C14.2347 1.89306 14.0786 1.74745 14.0928 1.73576V1.73588ZM4.06621 4.92755C4.05846 4.91644 4.08091 4.8875 4.08877 4.87662C4.23399 4.67697 4.56979 4.37002 4.75932 4.19387C6.04846 2.9956 7.65904 2.1419 9.37411 1.73588C9.38811 1.74734 9.24312 1.88252 9.22935 1.89757C8.08034 3.15127 7.15674 4.60509 6.49452 6.17315C5.64463 5.84259 4.83627 5.41308 4.06621 4.92766V4.92755ZM18.0829 11.2218C18.0625 11.0333 18.0632 10.8398 18.048 10.6492C17.9534 9.45255 17.705 8.27083 17.3319 7.1338C17.4539 7.06748 17.5919 7.0228 17.7206 6.96667C18.5316 6.61285 19.3116 6.19468 20.0541 5.71458C21.2048 7.31134 21.9004 9.24375 21.9805 11.2219H18.083L18.0829 11.2218ZM5.38404 11.2218H1.48655C1.56766 9.2434 2.26193 7.31123 3.41291 5.71447C4.06829 6.13403 4.7481 6.51701 5.45729 6.83935C5.68131 6.94109 5.91423 7.03021 6.13513 7.1338C5.763 8.2713 5.51364 9.45243 5.41899 10.6492C5.40395 10.8397 5.40487 11.0333 5.38416 11.2218H5.38404ZM12.2424 8.19086C13.3241 8.14664 14.4003 7.99977 15.4484 7.73634C15.7585 7.65845 16.063 7.56053 16.3716 7.47836C16.7805 8.68287 17.0039 9.94861 17.0651 11.2218H12.2424V8.19086ZM6.40184 11.2218C6.46317 9.94838 6.68718 8.68322 7.09518 7.47836C7.41269 7.564 7.72673 7.66354 8.04621 7.74329C9.08541 8.00278 10.1525 8.14745 11.2246 8.19074V11.2216H6.40184V11.2218ZM18.0829 12.2398H21.9804C21.9306 13.4613 21.6425 14.6794 21.1612 15.7992C20.8655 16.4874 20.4869 17.1377 20.054 17.7471C19.2112 17.2061 18.3246 16.7313 17.3922 16.3608L17.3669 16.339C17.7893 15.0147 18.0411 13.6339 18.0828 12.2398H18.0829ZM12.2424 12.2398H17.0651C17.0262 13.5181 16.7974 14.7869 16.4058 15.9995C15.0611 15.5688 13.6574 15.3237 12.2424 15.2707V12.2398ZM6.40184 12.2398H11.2246V15.2707C9.80965 15.324 8.40538 15.5677 7.06116 15.9995C6.66971 14.7867 6.44083 13.5181 6.40184 12.2398ZM1.48655 12.2398H5.38404C5.42072 13.4071 5.60008 14.5661 5.90775 15.6897C5.96746 15.9075 6.0392 16.1216 6.09995 16.339L6.07461 16.3606C5.1414 16.7294 4.25563 17.2061 3.41233 17.7466C2.26216 16.1495 1.56755 14.2178 1.48643 12.2398H1.48655ZM12.2424 16.2888C13.5347 16.3394 14.8196 16.559 16.0479 16.9546C15.6526 17.9412 15.128 18.8788 14.5072 19.7398C13.9889 20.4587 13.3707 21.1685 12.7168 21.7666C12.684 21.7965 12.5166 21.9543 12.4967 21.963C12.4916 21.9652 12.4145 21.9804 12.41 21.9804H12.2424V16.2888ZM11.2246 16.2888V21.9804H11.0569C11.0525 21.9804 10.9753 21.9652 10.9702 21.963C10.9501 21.9543 10.7832 21.7968 10.7501 21.7666C10.4956 21.5344 10.2379 21.2737 10.0042 21.0204C8.91184 19.8359 8.02353 18.4502 7.41917 16.9542C8.64687 16.5584 9.93253 16.3392 11.2244 16.2888H11.2246ZM14.2317 21.6911C14.2265 21.6711 14.2399 21.6679 14.2489 21.6564C14.3625 21.5093 14.5241 21.3578 14.6478 21.2108C15.6298 20.0441 16.4252 18.7228 17.0072 17.3118H17.0421C17.8641 17.6469 18.6518 18.0596 19.4008 18.534C19.4086 18.5451 19.3861 18.5741 19.3783 18.585C19.2378 18.7781 18.9137 19.0737 18.7309 19.2446C17.4718 20.4214 15.9055 21.2696 14.2318 21.6911H14.2317ZM4.06621 18.534C4.81463 18.059 5.60308 17.6469 6.42498 17.3118H6.45981C7.12353 18.9212 8.06542 20.4145 9.24683 21.691C7.86396 21.352 6.55782 20.712 5.43646 19.8397C5.10703 19.5835 4.78304 19.3023 4.48717 19.0078C4.37632 18.8973 4.17509 18.7037 4.08877 18.585C4.08079 18.5741 4.05846 18.5451 4.06621 18.534Z" fill="#2fad78"/>
</svg>
