<svg width="44" height="31" viewBox="0 0 44 31" fill="none" xmlns="http://www.w3.org/2000/svg">
<path d="M43.2897 20.7098C41.304 27.8146 32.6769 33.7856 22.9094 29.4583C22.2251 29.1564 21.3195 28.5727 20.548 28.1232C17.7439 26.5332 11.6928 18.8447 8.84845 15.5707C5.21918 11.4111 1.93874 6.79528 0 3.91712C2.58275 2.63569 5.71561 3.29989 7.56044 5.52728C7.56044 5.52728 11.9545 10.6597 14.0341 13.2561C16.2747 16.0604 21.8964 22.7694 23.8486 23.6886C30.3021 26.7211 36.7221 23.8093 37.8021 18.4019C38.0839 16.9796 38.4529 13.6922 36.9971 11.6258C35.7695 9.88814 34.8974 5.43335 36.9032 2.30025C43.88 9.22395 45.0137 14.5107 43.2829 20.7098H43.2897Z" fill="#2FAD78"/>
<path d="M18.3012 6.86914L18.1535 5.88291C17.751 3.2664 15.6043 1.2604 12.9679 1.04571C13.0887 3.53476 13.1289 6.21166 13.4979 9.90161C15.2957 12.3169 17.2211 14.5241 18.9116 16.0672C18.6097 12.706 18.5427 9.54604 18.3079 6.87585L18.3012 6.86914Z" fill="#2FAD78"/>
<path d="M29.1013 1.95809C28.625 1.05237 27.8669 0.455266 26.8405 0.160069C25.794 -0.128418 24.8414 -0.0277839 23.9291 0.468683C23.0235 0.96515 22.4264 1.73669 22.1178 2.77659C21.8428 3.74939 21.9635 4.70878 22.4935 5.6145C23.01 6.54035 23.7748 7.13744 24.7542 7.41251C25.7471 7.701 26.6862 7.58695 27.5919 7.09048C28.4975 6.59402 29.0946 5.8426 29.3696 4.84967C29.6782 3.82319 29.5776 2.85038 29.0946 1.95809H29.1013Z" fill="#E0EFFB"/>
</svg>
