<svg width="87" height="88" viewBox="0 0 87 88" fill="none" xmlns="http://www.w3.org/2000/svg">
<path d="M28.4024 0C12.7176 0 0 12.7221 0 28.4124C0 44.1028 12.7176 56.8248 28.4024 56.8248C44.0873 56.8248 56.8049 44.1028 56.8049 28.4124C56.8049 12.7221 44.0873 0 28.4024 0ZM28.4024 47.3919C17.9236 47.3919 9.4296 38.8949 9.4296 28.4124C9.4296 17.9299 17.9236 9.43291 28.4024 9.43291C38.8813 9.43291 47.3753 17.9299 47.3753 28.4124C47.3753 38.8949 38.8813 47.3919 28.4024 47.3919Z" fill="#2FAD78"/>
<path d="M28.4626 21.8608C30.2403 21.8608 31.7707 22.4959 33.0404 23.7661C34.3102 25.0363 34.945 26.5673 34.945 28.3456C34.945 30.1238 34.3102 31.6748 33.0404 32.9918C31.7707 34.3088 30.2403 34.9639 28.4626 34.9639C26.685 34.9639 25.0276 34.3288 23.7578 33.0586C22.4814 31.7884 21.8532 30.2174 21.8532 28.3523C21.8532 26.4871 22.4881 24.936 23.7578 23.7059C25.0276 22.4758 26.5981 21.8608 28.4626 21.8608Z" fill="#E0EFFB"/>
<path d="M70.3854 65.4324L47.6934 42.7325L41.6966 48.7313L64.3886 71.4313L70.3854 65.4324Z" fill="#2FAD78"/>
<path d="M84.5665 76.7252L61.194 53.3445C58.8921 51.0418 55.16 51.0417 52.8581 53.3444L52.3099 53.8928C50.008 56.1955 50.0081 59.9289 52.31 62.2316L75.6825 85.6123C77.9844 87.915 81.7165 87.9151 84.0184 85.6124L84.5665 85.064C86.8684 82.7613 86.8684 79.0279 84.5665 76.7252Z" fill="#2FAD78"/>
</svg>
