<svg width="23" height="37" viewBox="0 0 23 37" fill="none" xmlns="http://www.w3.org/2000/svg">
<path d="M13.5061 18.617C13.1581 17.6599 13.2116 16.7095 13.6466 15.7791C14.0884 14.8488 14.7844 14.2062 15.7481 13.8649C16.7052 13.5168 17.6622 13.5637 18.6192 13.992C19.5763 14.4204 20.2255 15.1165 20.5668 16.0803C20.9282 17.0843 20.888 18.0548 20.4463 18.9851C20.0046 19.9155 19.2818 20.5647 18.2779 20.9261C17.274 21.2876 16.317 21.2474 15.4068 20.799C14.4966 20.3505 13.8608 19.6277 13.4994 18.617H13.5061Z" fill="#E0EFFB"/>
<path d="M21.0148 29.8281C20.4058 28.128 18.5721 27.2311 16.8387 27.7398C13.1711 28.8241 10.3268 29.0115 8.87448 24.9621L5.97658 16.8835C4.5176 12.8275 6.82656 11.1408 10.3469 9.62814C12.0066 8.91867 12.8432 7.05797 12.2342 5.36461L10.7015 1.10107C10.3937 0.237653 9.43665 -0.210787 8.57331 0.0970974C1.86734 2.50663 -1.64627 9.9628 0.756371 16.6693L4.97939 28.4292C7.38872 35.1357 14.8443 38.6496 21.5502 36.2401C22.4136 35.9322 22.862 34.9751 22.5541 34.1117L21.0081 29.8147L21.0148 29.8281Z" fill="#2FAD78"/>
</svg>
