<svg width="33" height="34" viewBox="0 0 33 34" fill="none" xmlns="http://www.w3.org/2000/svg">
<path d="M30.5149 10.5387L22.4325 2.45573C19.1585 -0.818577 13.8159 -0.818577 10.5419 2.45573L4.80892 8.20289L2.45267 10.5387C-0.410393 13.3884 -0.773357 17.8751 1.39791 21.1357C1.99382 22.0262 2.32943 23.0674 2.32943 24.136V25.5882C2.32943 30.212 6.11719 34 10.7406 34H22.1722C26.7956 34 30.5834 30.2188 30.5834 25.5882V24.2251C30.5834 23.1359 30.9327 22.0879 31.5423 21.1905C33.7478 17.9231 33.4122 13.4158 30.5149 10.5387ZM25.4873 21.9851V23.4099C25.4873 26.3691 23.0695 28.7872 20.1105 28.7872H12.809C9.85006 28.7872 7.43222 26.3691 7.43222 23.4099V21.9098C7.43222 20.9439 7.11028 20.026 6.63767 19.1835C5.48696 17.1285 5.7815 14.457 7.50756 12.7239L12.6721 7.55899C13.2885 6.94249 14.0077 6.49724 14.7885 6.25749C15.8776 5.90129 17.0557 5.90129 18.1448 6.25749C18.9256 6.50409 19.6585 6.94249 20.2818 7.55899L25.4463 12.7239C27.186 14.4638 27.4737 17.149 26.3025 19.2109C25.8161 20.0671 25.4805 20.9987 25.4805 21.9851H25.4873Z" fill="#2FAD78"/>
<path d="M12.6587 17.6284C12.6587 16.6078 13.0217 15.731 13.7546 14.998C14.4875 14.2651 15.3643 13.902 16.3848 13.902C17.4054 13.902 18.2958 14.2651 19.0492 14.998C19.8026 15.731 20.1794 16.6078 20.1794 17.6284C20.1794 18.6491 19.8164 19.6012 19.0835 20.3342C18.3506 21.0671 17.4533 21.4302 16.378 21.4302C15.3026 21.4302 14.419 21.0671 13.7135 20.3342C13.008 19.6012 12.6518 18.7039 12.6518 17.6284H12.6587Z" fill="#E0EFFB"/>
</svg>
