<svg width="418" height="3023" viewBox="0 0 418 3023" fill="none" xmlns="http://www.w3.org/2000/svg">
<g opacity="0.8">
<g opacity="0.1">
<path d="M202.928 723.441C204.903 729.192 204.509 735.462 201.834 740.726C196.745 751.887 183.844 756.296 173.018 750.579C172.778 750.452 172.538 750.319 172.304 750.185C166.914 747.637 162.812 742.754 161.098 736.843C158.97 730.846 159.27 724.282 161.918 718.691C164.513 713.175 169.222 709.118 174.912 707.497C180.482 705.509 186.672 706.07 191.996 709.052C197.252 712.221 201.181 717.384 202.935 723.435L202.928 723.441Z" fill="url(#paint0_linear_13_14)"/>
<path d="M-38.4565 825.188C-88.4517 718.271 -103.48 582.682 -73.8701 509.321C-55.2327 450.796 -15.5033 400.663 37.8339 368.375C12.2659 419.655 -79.9669 493.19 -20.5262 722.12C-2.10901 792.146 47.8463 862.312 53.256 856.062C75.1686 810.779 78.4504 759.191 62.4146 712.114C34.7721 634.496 1.30629 609.06 -19.3856 575.317C32.7443 596.838 73.9412 637.585 95.4202 688.885C112.443 723.435 123.79 760.472 129.033 798.637C140.186 865.268 108.621 948.896 91.5913 961.284C74.5616 973.672 -6.37811 893.54 -38.4631 825.181L-38.4565 825.188Z" fill="url(#paint1_linear_13_14)"/>
<path d="M91.1844 622.028C137.191 632.275 181.009 619.52 173.031 604.583C146.689 570.981 110.095 547.893 70.5126 539.908C30.3829 533.717 2.01337 564.117 -20.4061 542.309L13.0864 522.109C42.8901 501.569 81.3121 497.453 117.266 510.949C191.235 532.823 243.298 605.511 237.682 619.54C215.576 645.624 181.469 657.211 146.77 650.433C102.524 639.126 91.1844 622.028 91.1844 622.028Z" fill="url(#paint2_linear_13_14)"/>
</g>
<g opacity="0.25">
<path d="M68.8924 463.337C69.8997 466.426 72.2744 468.908 75.4428 470.175C81.8665 473.057 89.8578 470.389 93.2864 464.218C93.3598 464.078 93.4331 463.944 93.5065 463.804C95.3209 460.856 95.6811 457.38 94.4871 454.318C93.4732 451.069 91.0451 448.434 87.7766 447.02C84.5614 445.619 80.7992 445.572 77.3839 446.887C73.9019 448.001 71.0003 450.402 69.3727 453.504C67.8385 456.666 67.665 460.195 68.8857 463.337H68.8924Z" fill="#016C7F"/>
<path d="M222.713 414.525C209.286 348.869 168.489 282.859 127.872 260.604C97.922 241.072 60.5872 232.819 22.9124 237.396C53.69 251.211 125.138 251.212 177.281 374.819C193.116 412.711 193.503 461.916 188.627 461.049C161.772 448.608 141.827 426.7 132.982 399.929C118.981 355.353 126.385 332.038 124.564 309.563C106.6 337.782 100.844 370.703 108.515 401.31C112.43 422.837 120.015 443.451 131.001 462.39C149.198 496.172 194.424 522.323 207.191 521.789C219.958 521.255 231.252 456.546 222.727 414.525H222.713Z" fill="#016C7F"/>
<path d="M91.665 359.829C77.6703 382.017 54.5237 396.387 51.2085 388.588C47.1262 367.554 51.7421 345.42 64.1426 326.574C77.5502 308.049 102.191 305.394 101.677 289.53L79.4247 297.375C58.506 303.586 41.2895 318.309 32.7446 337.295C12.5997 374.586 23.4059 418.048 31.7774 419.929C52.029 418.581 70.7663 407.894 81.7393 391.444C94.5666 369.669 91.6583 359.823 91.6583 359.823L91.665 359.829Z" fill="#016C7F"/>
</g>
<g opacity="0.5">
<path d="M65.6704 281.852C65.3235 285.814 63.3291 289.457 60.1672 291.871C53.8303 297.155 44.4116 296.294 39.1286 289.957C39.0085 289.817 38.8951 289.67 38.7817 289.53C36.0668 286.555 34.8194 282.525 35.3797 278.536C35.6999 274.38 37.7144 270.544 40.9496 267.922C44.1314 265.334 48.2538 264.187 52.3161 264.76C56.4051 265.081 60.1806 267.089 62.7287 270.311C65.1834 273.626 66.2441 277.769 65.6704 281.858V281.852Z" fill="url(#paint3_linear_13_14)"/>
<path d="M-122.084 269.01C-123.465 187.103 -94.9015 96.8435 -55.8058 58.6451C-27.7431 26.7642 11.1859 6.15735 53.6435 0.700439C23.2661 26.0304 -55.1054 46.6973 -81.9874 208.677C-90.0587 258.289 -78.4187 316.881 -73.2758 314.433C-46.8673 291.878 -30.3579 260.077 -27.2228 225.695C-22.8002 168.664 -36.6415 143.101 -40.1568 115.869C-13.5283 144.208 0.866638 181.666 -0.0405426 220.258C0.946686 246.975 -2.31519 273.666 -9.71942 299.356C-21.3928 344.766 -64.5908 388.929 -78.7256 391.991C-92.8603 395.053 -121.123 321.418 -122.084 269.01Z" fill="url(#paint4_linear_13_14)"/>
<path d="M9.17184 173.4C29.9704 195.722 58.887 206.102 60.6079 195.868C59.9276 169.685 49.4349 144.722 31.2045 125.916C11.9534 107.777 -15.7358 111.753 -19.0643 92.7542L7.27075 95.6427C31.7448 96.9703 54.2376 109.485 68.2723 129.578C99.5236 168.07 98.3295 222.846 89.6045 227.503C67.0583 231.759 43.8784 224.481 27.8092 208.11C8.39807 185.942 9.17184 173.407 9.17184 173.407V173.4Z" fill="url(#paint5_linear_13_14)"/>
</g>
</g>
<g opacity="0.8">
<g opacity="0.1">
<path d="M341.541 1701.22C343.742 1692.1 342.221 1682.52 337.345 1674.82C327.9 1658.41 307.435 1653.51 291.639 1663.87C291.285 1664.09 290.938 1664.33 290.598 1664.57C282.694 1669.27 277.091 1677.37 275.316 1686.7C272.921 1696.22 274.329 1706.27 279.212 1714.47C284.001 1722.57 291.826 1728.12 300.811 1729.78C309.663 1732.03 319.088 1730.26 326.826 1724.91C334.443 1719.27 339.726 1710.76 341.541 1701.21V1701.22Z" fill="url(#paint6_linear_13_14)"/>
<path d="M-44.1262 1579.98C-105.401 1751.52 -108.783 1962.03 -52.6311 2070.45C-15.4898 2157.66 52.836 2228.91 139.486 2270.77C92.7521 2195.7 -59.6484 2096.12 -1.5952 1735.74C16.5285 1625.47 83.0866 1510.4 92.3052 1519.22C132.555 1585.6 145.102 1664.39 127.299 1739.05C96.1074 1862.32 48.3867 1906.26 21.498 1961.12C98.4621 1920.48 155.835 1851.87 181.39 1769.94C202.522 1714.38 214.569 1655.83 217.083 1596.43C224.534 1492.43 163.88 1368.52 135.917 1351.97C107.954 1335.41 -4.757 1470.29 -44.1262 1579.98Z" fill="url(#paint7_linear_13_14)"/>
<path d="M184.598 1873.28C253.798 1850.85 322.977 1864.08 312.891 1888.19C277.304 1943.66 224.434 1984.44 164.773 2002.47C104.012 2017.81 56.0111 1975.22 24.7332 2011.99L79.1243 2038.16C127.899 2065.38 187.533 2066.12 240.817 2040.16C351.28 1995.8 420.72 1876.54 410.047 1855.81C372.292 1818.95 318.208 1806.1 265.878 1821.56C199.54 1845.36 184.605 1873.28 184.605 1873.28H184.598Z" fill="url(#paint8_linear_13_14)"/>
</g>
<g opacity="0.25">
<path d="M173.405 2120.35C174.499 2115.45 177.794 2111.3 182.47 2108.9C191.916 2103.54 204.583 2106.47 210.76 2115.45C210.9 2115.65 211.034 2115.86 211.16 2116.06C214.375 2120.32 215.436 2125.61 214.049 2130.5C212.961 2135.63 209.613 2140.04 204.797 2142.69C200.061 2145.3 194.284 2145.92 188.847 2144.4C183.338 2143.19 178.528 2139.93 175.58 2135.39C172.765 2130.76 171.985 2125.36 173.405 2120.36V2120.35Z" fill="#016C7F"/>
<path d="M416.845 2172.98C405.758 2275.81 352.668 2383.16 293.501 2423.26C250.323 2457.63 194.164 2475.74 135.604 2474.18C180.89 2448.47 290.659 2438.09 352.808 2240.6C371.632 2180.07 365.075 2104.41 357.704 2106.46C318.248 2129.48 290.786 2166.03 281.087 2208.46C266.058 2278.99 280.82 2313.73 281.28 2348.53C249.582 2307.79 235.948 2258.03 243.285 2209.9C246.167 2176.25 254.832 2143.48 268.953 2112.78C292 2058.23 357.684 2011.47 377.382 2010.44C397.073 2009.41 423.829 2107.18 416.838 2172.99L416.845 2172.98Z" fill="#016C7F"/>
<path d="M223.441 2276.07C198.713 2244.02 161.058 2225.3 157.096 2237.77C153.874 2270.69 164.187 2304.03 185.986 2331.17C209.279 2357.69 247.528 2358.18 249.042 2382.63L213.715 2373.81C180.676 2367.31 152.08 2347.19 136.191 2319.26C99.8165 2264.89 110.102 2196.54 122.696 2192.44C154.001 2191.56 184.352 2205.26 203.596 2228.94C226.469 2260.52 223.434 2276.07 223.434 2276.07H223.441Z" fill="#016C7F"/>
</g>
<g opacity="0.6">
<path d="M-7.5919 2885.23C-8.52577 2883.18 -8.4724 2880.8 -7.44515 2878.68C-5.51071 2874.19 -0.180987 2871.82 4.46167 2873.36C4.56173 2873.39 4.66845 2873.43 4.76851 2873.47C7.07649 2874.12 8.8842 2875.73 9.71134 2877.85C10.7119 2879.99 10.7052 2882.48 9.69798 2884.73C8.71075 2886.95 6.80967 2888.74 4.44832 2889.66C2.147 2890.72 -0.461159 2890.86 -2.74247 2890.03C-5.00376 2889.13 -6.74475 2887.41 -7.5919 2885.23Z" fill="#016C7F"/>
<path d="M93.8729 2838.14C117.753 2877.97 127.819 2930.82 117.486 2961.21C111.33 2985.22 96.1141 3006.92 74.7152 3022.22C83.9739 3000.74 120.481 2967.29 89.2502 2879.7C79.598 2852.92 56.7583 2827.59 54.6704 2830.32C46.7726 2849.25 46.8393 2869.79 54.8572 2887.61C68.5784 2916.95 83.2801 2925.4 92.8723 2937.74C70.4795 2931.74 52.1223 2917.61 41.7097 2898.37C33.6317 2885.54 27.8551 2871.46 24.5999 2856.63C18.0762 2830.84 28.9424 2796.29 35.7196 2790.59C42.4968 2784.89 78.5641 2812.67 93.8862 2838.13L93.8729 2838.14Z" fill="#016C7F"/>
<path d="M52.5158 2927.46C34.9724 2922.68 16.4151 2926.17 18.3762 2931.72C26.1407 2944.38 38.8613 2953.53 54.0233 2957.35C69.5522 2960.54 83.3868 2950.35 90.5509 2958.69L75.5089 2965.11C61.9145 2971.73 46.2189 2972.27 32.9579 2966.57C5.20205 2956.94 -9.62643 2929.67 -6.23116 2924.79C4.74846 2916 19.3301 2912.68 32.6377 2915.95C49.3873 2921.07 52.5158 2927.46 52.5158 2927.46Z" fill="#016C7F"/>
</g>
<g opacity="0.5">
<path d="M-213.069 2133.55C-200.676 2220.93 -155.043 2312.14 -107.015 2346.17C-71.782 2375.35 -26.9096 2390.7 19.1567 2389.34C-17.4242 2367.53 -104.254 2358.77 -160.233 2190.97C-177.209 2139.54 -174.741 2075.24 -168.864 2076.98C-136.973 2096.51 -114.039 2127.56 -104.888 2163.61C-90.5394 2223.55 -100.932 2253.08 -100.058 2282.65C-76.538 2248 -67.5729 2205.71 -75.0639 2164.81C-78.5325 2136.21 -86.5171 2108.37 -98.7374 2082.29C-118.829 2035.94 -172.226 1996.25 -187.775 1995.38C-203.324 1994.52 -220.914 2077.64 -213.069 2133.55V2133.55Z" fill="url(#paint9_linear_13_14)"/>
<path d="M-57.0803 2221.03C-38.7431 2193.77 -9.75316 2177.84 -6.19112 2188.44C-2.48234 2216.41 -9.41964 2244.75 -25.6222 2267.83C-43.0255 2290.38 -73.1361 2290.82 -73.4563 2311.6L-45.9472 2304.08C-20.1525 2298.54 1.64669 2281.42 13.1733 2257.67C39.8886 2211.44 29.3492 2153.36 19.2901 2149.88C-5.39735 2149.16 -28.8174 2160.82 -43.1323 2180.96C-60.0219 2207.82 -57.0803 2221.03 -57.0803 2221.03Z" fill="url(#paint10_linear_13_14)"/>
</g>
<g opacity="0.5">
<path d="M194.83 2399.66C193.723 2393.62 190.128 2388.32 184.918 2385.07C174.412 2377.88 160.064 2380.56 152.873 2391.07C152.713 2391.3 152.56 2391.54 152.406 2391.78C148.671 2396.75 147.343 2403.12 148.771 2409.16C149.865 2415.5 153.52 2421.1 158.87 2424.66C164.14 2428.17 170.637 2429.34 176.793 2427.87C183.037 2426.78 188.54 2423.14 191.982 2417.83C195.271 2412.38 196.298 2405.85 194.824 2399.66H194.83Z" fill="url(#paint11_linear_13_14)"/>
<path d="M-91.7735 2446.68C-81.9879 2572.73 -24.9886 2707.25 40.629 2760.26C88.383 2805.16 151.192 2831.16 217.217 2833.37C166.861 2798.88 43.4372 2778.51 -21.3999 2533.55C-41.0178 2458.49 -31.6391 2366.79 -23.3877 2369.79C20.4641 2400.59 50.4479 2447.07 60.2669 2499.43C75.3489 2586.41 57.7988 2627.7 56.358 2670.06C93.1524 2622.65 109.829 2563 102.825 2503.84C100.463 2462.65 91.5648 2422.11 76.4561 2383.72C51.9221 2315.64 -20.8662 2254.07 -43.0322 2251.42C-65.1983 2248.77 -97.917 2366.01 -91.7735 2446.67V2446.68Z" fill="url(#paint12_linear_13_14)"/>
<path d="M123.79 2574.5C152.5 2537.19 195.424 2517.03 199.56 2532.5C202.321 2572.83 189.821 2612.71 164.546 2644.25C137.604 2674.93 94.4864 2672.83 92.1317 2702.51L132.175 2694.25C169.583 2688.66 202.328 2666.16 220.972 2633.24C263.39 2569.56 253.597 2485.57 239.516 2479.69C204.263 2476.42 169.703 2490.97 147.39 2518.47C120.788 2555.35 123.797 2574.51 123.797 2574.51L123.79 2574.5Z" fill="url(#paint13_linear_13_14)"/>
</g>
</g>
<defs>
<linearGradient id="paint0_linear_13_14" x1="78.5681" y1="896.524" x2="264.43" y2="596.593" gradientUnits="userSpaceOnUse">
<stop stop-color="#004C6D"/>
<stop offset="1" stop-color="#0B2849"/>
</linearGradient>
<linearGradient id="paint1_linear_13_14" x1="-63.3063" y1="784.965" x2="94.9485" y2="489.823" gradientUnits="userSpaceOnUse">
<stop stop-color="#004C6D"/>
<stop offset="1" stop-color="#0B2849"/>
</linearGradient>
<linearGradient id="paint2_linear_13_14" x1="7.11484" y1="884.301" x2="118.819" y2="549.597" gradientUnits="userSpaceOnUse">
<stop stop-color="#004C6D"/>
<stop offset="1" stop-color="#0B2849"/>
</linearGradient>
<linearGradient id="paint3_linear_13_14" x1="43.4908" y1="465.027" x2="59.7992" y2="70.2296" gradientUnits="userSpaceOnUse">
<stop stop-color="#6FC182"/>
<stop offset="1" stop-color="#016E7E"/>
</linearGradient>
<linearGradient id="paint4_linear_13_14" x1="-47.3772" y1="461.274" x2="-31.0754" y2="66.4778" gradientUnits="userSpaceOnUse">
<stop stop-color="#6FC182"/>
<stop offset="1" stop-color="#016E7E"/>
</linearGradient>
<linearGradient id="paint5_linear_13_14" x1="25.5787" y1="464.288" x2="41.8871" y2="69.4907" gradientUnits="userSpaceOnUse">
<stop stop-color="#6FC182"/>
<stop offset="1" stop-color="#016E7E"/>
</linearGradient>
<linearGradient id="paint6_linear_13_14" x1="125.198" y1="1453.26" x2="454.328" y2="1887.1" gradientUnits="userSpaceOnUse">
<stop stop-color="#004C6D"/>
<stop offset="1" stop-color="#0B2849"/>
</linearGradient>
<linearGradient id="paint7_linear_13_14" x1="-72.1212" y1="1603.78" x2="213.98" y2="2034.22" gradientUnits="userSpaceOnUse">
<stop stop-color="#004C6D"/>
<stop offset="1" stop-color="#0B2849"/>
</linearGradient>
<linearGradient id="paint8_linear_13_14" x1="17.8481" y1="1482.79" x2="238.176" y2="1980.79" gradientUnits="userSpaceOnUse">
<stop stop-color="#004C6D"/>
<stop offset="1" stop-color="#0B2849"/>
</linearGradient>
<linearGradient id="paint9_linear_13_14" x1="47.2975" y1="2272.28" x2="-267.575" y2="2110.6" gradientUnits="userSpaceOnUse">
<stop stop-color="#15B47A"/>
<stop offset="0.53" stop-color="#41B972"/>
<stop offset="1" stop-color="#6DBF6B"/>
</linearGradient>
<linearGradient id="paint10_linear_13_14" x1="48.6533" y1="2269.64" x2="-266.219" y2="2107.96" gradientUnits="userSpaceOnUse">
<stop stop-color="#15B47A"/>
<stop offset="0.53" stop-color="#41B972"/>
<stop offset="1" stop-color="#6DBF6B"/>
</linearGradient>
<linearGradient id="paint11_linear_13_14" x1="133.215" y1="2121.37" x2="215.616" y2="2725.59" gradientUnits="userSpaceOnUse">
<stop stop-color="#6FC182"/>
<stop offset="1" stop-color="#016E7E"/>
</linearGradient>
<linearGradient id="paint12_linear_13_14" x1="-5.85763" y1="2140.34" x2="76.5431" y2="2744.56" gradientUnits="userSpaceOnUse">
<stop stop-color="#6FC182"/>
<stop offset="1" stop-color="#016E7E"/>
</linearGradient>
<linearGradient id="paint13_linear_13_14" x1="105.806" y1="2125.11" x2="188.2" y2="2729.33" gradientUnits="userSpaceOnUse">
<stop stop-color="#6FC182"/>
<stop offset="1" stop-color="#016E7E"/>
</linearGradient>
</defs>
</svg>
