<svg width="109" height="74" viewBox="0 0 109 74" fill="none" xmlns="http://www.w3.org/2000/svg">
<path d="M83.6292 18.6949C85.2056 30.9717 83.381 41.7324 76.7601 47.1261C73.0505 50.1517 67.4157 53.6537 56.4816 53.6537C63.8605 51.1178 78.2962 47.7433 78.2426 28.5365C78.209 18.4601 75.0294 10.7787 74.1104 11.2483C72.7822 11.9259 70.213 14.5423 69.3141 20.4459C68.0128 29.0195 71.2595 35.3525 73.3859 38.472C69.3678 35.9563 66.2083 30.6564 65.4033 23.1562C64.9874 19.3323 65.3832 15.9846 66.5906 11.7917C68.7842 4.18414 73.0975 0.742612 75.2508 0.0314965C77.1894 -0.599116 82.301 8.33008 83.6359 18.6949H83.6292Z" fill="#15B47A"/>
<path d="M64.1162 32.6892C60.9969 28.2749 56.7842 27.3693 56.697 29.1739C56.6165 30.8913 58.1527 35.6611 63.385 39.8809C65.0083 41.1958 68.1075 42.4033 71.3542 43.0943C71.1664 43.4499 61.9092 44.4629 56.1067 39.1832C49.6133 33.2796 49.667 24.2565 51.0556 23.2971C52.9003 22.0225 58.146 22.4854 60.7219 25.2963C64.1832 29.0665 64.1162 32.6892 64.1162 32.6892Z" fill="#15B47A"/>
<path d="M29.7637 41.3366V41.0682H35.526C39.0611 41.0682 40.8254 39.2636 40.8254 35.6611V26.6312C40.8254 24.0618 42.9049 21.9822 45.4741 21.9822V35.8221C45.4741 38.8879 44.555 41.303 42.717 43.0674C41.0199 44.6507 38.8062 45.449 36.0693 45.449H33.8758C31.6085 45.449 29.7704 43.6108 29.7704 41.3433L29.7637 41.3366ZM37.6793 54.7404C35.9151 54.7404 35.0296 53.8415 35.0296 52.0436C35.0296 50.5677 36.1767 49.4004 37.6457 49.3937C39.3965 49.3802 40.2686 50.2658 40.2686 52.0436C40.2686 53.8214 39.4032 54.7471 37.6726 54.7471L37.6793 54.7404ZM44.5416 54.7404C42.7774 54.7404 41.8919 53.8415 41.8919 52.0436C41.8919 50.5677 43.039 49.4004 44.5081 49.3937C46.2589 49.3869 47.131 50.2658 47.131 52.0436C47.131 53.8214 46.2656 54.7471 44.5349 54.7471L44.5416 54.7404Z" fill="#E1EFFA"/>
<path d="M21.5933 68.6877C20.9158 69.5062 20.0102 69.9422 18.8162 69.9422H18.1722C17.005 69.9422 16.0994 69.5464 15.4554 68.7548C14.798 69.5464 13.8924 69.9422 12.7185 69.9422H12.0947C11.3702 69.9422 10.7463 69.7812 10.2164 69.4592C10.0487 71.0089 9.43155 71.9481 8.35826 72.8202C7.399 73.6119 6.44646 73.8332 5.03106 73.8332C3.91081 73.8332 2.22709 73.31 1.22759 71.9079C0.462869 70.8278 0.0804937 69.8215 0.0804937 68.3456C0.0804937 67.3795 0.114041 66.4269 0.737893 65.3334C1.12025 64.6558 1.95876 64.3808 2.68995 64.6424C2.06609 65.7225 1.75082 66.8898 1.75082 68.1376C1.75082 69.3854 2.11305 70.1972 2.83752 71.0156C3.52175 71.7737 4.48771 71.9817 5.03777 71.9817C6.21839 71.9817 6.96969 71.7737 7.63379 70.9955C8.19056 70.338 8.46559 69.7611 8.46559 68.7078V63.3678C8.46559 62.3749 9.27057 61.5698 10.2634 61.5631V65.8097C10.2634 67.3326 10.9409 68.0906 12.2892 68.0906H12.5173C13.8656 68.0906 14.5431 67.3326 14.5431 65.8097V62.6298C14.5431 61.6235 15.3548 60.8118 16.361 60.8118V65.8164C16.361 67.3393 17.0385 68.0973 18.3868 68.0973H18.6149C19.9632 68.0973 20.6407 67.3393 20.6407 65.8164V61.8583C20.6407 60.852 21.4524 60.0403 22.4586 60.0403V65.6151C22.4586 67.2722 22.1836 67.99 21.6 68.7011L21.5933 68.6877Z" fill="#E1EFFA"/>
<path d="M34.7886 68.0973H38.5048C39.0616 68.0973 39.4574 67.943 39.6855 67.6411C39.9135 67.3392 40.0276 66.8092 40.0276 66.0645C40.0276 64.0385 39.1689 62.5157 37.4584 61.496C37.9816 60.5366 39.2897 60.3756 40.0276 61.174C41.1411 62.3815 41.7314 63.8641 41.7985 65.6084C41.8253 66.4939 41.6509 68.0302 41.1277 68.7346C40.5776 69.486 39.8934 69.9421 38.8067 69.9421H35.9491C34.9965 69.9421 34.3727 68.9493 34.7819 68.0906L34.7886 68.0973Z" fill="#E1EFFA"/>
<path d="M58.2328 63.8709C56.757 62.6835 54.9794 62.8244 53.3829 62.8176H51.9004V64.8101C51.9004 64.8839 51.9004 64.951 51.9004 65.0248V65.7829C51.9004 65.9774 51.887 66.1585 51.8669 66.3263C51.8669 66.3464 51.8669 66.3665 51.8534 66.3866C51.679 67.4802 50.9814 68.0504 49.7672 68.0839C49.727 68.0839 47.0773 68.0839 47.0773 68.0839V68.4462C47.0773 69.2714 47.7414 69.9422 48.5665 69.9489C48.8013 69.9489 50.5386 69.9154 50.8271 69.8818C51.1155 69.8416 51.3839 69.7879 51.5382 69.7208C51.7193 69.6336 51.8735 69.5665 52.001 69.4995C52.209 69.372 52.4035 69.2177 52.5846 69.0433C52.967 68.681 53.2554 68.2315 53.4365 67.7418C53.6109 67.2789 53.6914 66.7892 53.7116 66.2994C53.6982 65.7225 53.7116 64.4344 53.7116 64.4344C53.7116 64.4344 55.08 64.6357 55.5362 64.7296C56.6028 64.951 57.3809 65.85 57.3608 66.8697C57.3474 67.9028 56.5826 68.634 55.5496 68.5535C54.8989 68.5066 54.4562 68.3456 54.1409 67.782C53.7317 68.2181 53.8189 68.9359 53.839 69.0366C54.1006 70.1435 55.4892 70.1837 55.8984 70.1837C56.9985 70.1837 58.0182 69.7812 58.6755 68.9493C58.6755 68.9426 58.689 68.9292 58.6957 68.9225C58.8567 68.7145 58.9908 68.4932 59.1049 68.2382C59.1317 68.1778 59.1585 68.1108 59.1854 68.0571C59.2122 67.9967 59.2323 67.9363 59.2591 67.8827C59.4067 67.4802 59.4872 67.0843 59.4671 66.5141C59.3464 65.1657 58.964 64.4546 58.2529 63.891L58.2328 63.8709Z" fill="#E1EFFA"/>
<path d="M41.1339 68.2315V68.1175H43.5824C45.085 68.1175 45.8363 67.3527 45.8363 65.8164V61.9791C45.8363 60.8856 46.7218 60 47.8152 60V65.8902C47.8152 67.1917 47.4261 68.2181 46.6413 68.9695C45.9235 69.647 44.9776 69.9825 43.8104 69.9825H42.878C41.9121 69.9825 41.1339 69.1976 41.1339 68.2315ZM44.5014 73.9339C43.7501 73.9339 43.3744 73.5515 43.3744 72.7867C43.3744 72.1628 43.8641 71.6596 44.488 71.6596C45.2326 71.6596 45.6015 72.0286 45.6015 72.7867C45.6015 73.5448 45.2326 73.9339 44.4947 73.9339H44.5014ZM47.4194 73.9339C46.6681 73.9339 46.2924 73.5515 46.2924 72.7867C46.2924 72.1628 46.7821 71.6596 47.406 71.6596C48.1506 71.6596 48.5195 72.0286 48.5195 72.7867C48.5195 73.5448 48.1506 73.9339 47.4127 73.9339H47.4194Z" fill="#E1EFFA"/>
<path d="M32.997 65.5615V65.9506C32.997 67.2722 32.5945 68.2986 31.7829 69.0299C31.0651 69.6605 30.1327 69.9758 28.999 69.9758H23.5252C22.7873 69.9758 22.1568 69.5196 21.9019 68.8688C21.8281 68.6676 21.7811 68.4529 21.7811 68.2248V68.1108H28.8179C30.2937 68.1108 31.0249 67.3393 31.0249 65.7896V65.5816C31.0249 64.4478 30.5821 63.569 29.69 62.9585C28.9856 62.4822 28.127 62.2474 27.1141 62.2474C26.3024 62.2474 25.484 62.395 24.6522 62.6835C24.6522 62.0529 24.7662 61.4357 24.9876 60.8587C25.209 60.2818 25.5309 59.7384 25.9603 59.2755L28.3349 56.6457C29.2003 55.6864 30.4278 55.1363 31.7158 55.1363L27.1878 60.2415H27.322C29.0594 60.2415 30.4547 60.7782 31.5347 61.8516C32.5141 62.8176 33.0037 64.052 33.0037 65.5548L32.997 65.5615Z" fill="#E1EFFA"/>
<path d="M90.0227 41.0883H92.5383V45.4355H89.6807C87.5676 45.4355 85.6692 45.2476 84.2538 44.1139C83.9385 43.859 83.3348 43.3491 82.9055 42.477C81.8724 40.3638 82.4091 38.6061 82.4963 38.3176C82.939 36.8551 83.0665 36.3453 83.0665 36.3453C83.583 40.1021 86.6217 41.0816 90.0227 41.0816V41.0883Z" fill="#E1EFFA"/>
<path d="M95.6442 22.559C99.716 22.559 103.016 23.8203 105.539 26.3427C107.846 28.6169 109 31.5151 109 35.0505V35.9696C109 39.069 108.047 41.4841 106.136 43.2149C104.439 44.6908 102.258 45.4355 99.5953 45.4355H89.0502C86.6286 45.4355 84.6698 43.4766 84.6698 41.0548H99.1593C102.621 41.0548 104.351 39.2367 104.351 35.5939V35.1042C104.351 32.4342 103.305 30.3813 101.212 28.939C99.555 27.8186 97.5359 27.2618 95.1545 27.2618C93.2428 27.2618 91.3175 27.6039 89.3655 28.2882C89.3655 25.3297 90.4589 22.4785 92.4445 20.2781L98.0256 14.086C100.051 11.8386 102.943 10.5506 105.968 10.5506L95.3155 22.559H95.6442Z" fill="#E1EFFA"/>
<path d="M0 10.5708C2.56919 10.5708 4.64869 12.6504 4.64869 15.2199V38.1164C4.64869 40.6858 2.56919 42.7655 0 42.7655V10.5708Z" fill="#E1EFFA"/>
<path d="M31.1255 37.3382C31.1858 38.6733 30.9846 39.6192 30.6425 40.5584C30.5888 40.6993 30.5352 40.8334 30.4748 40.9743C30.4144 41.1152 30.3608 41.2561 30.2937 41.4037C30.0254 42.0007 29.7101 42.5374 29.3344 43.0205H29.3277C29.3277 43.0205 29.2942 43.0674 29.2741 43.0875C27.7312 45.0398 25.3364 45.9857 22.7538 45.9857C17.8435 45.9857 17.9307 41.7794 18.8967 40.7529C19.8827 41.8129 20.4127 42.0544 21.9421 42.1685C24.3637 42.3496 26.1615 40.6322 26.2085 38.2036C26.242 35.8087 24.4241 33.6954 21.9153 33.1789C20.8487 32.9508 17.6288 32.4879 17.6288 32.4879C17.6288 32.4879 17.602 35.5202 17.6355 36.8753C17.5819 38.0292 17.394 39.1831 16.9849 40.2632C16.5555 41.4171 15.8646 42.4703 14.9791 43.3223C14.5565 43.7249 14.0937 44.0871 13.5973 44.389C13.3021 44.55 12.9533 44.7177 12.524 44.9123C12.1685 45.0733 11.9001 45.2276 10.9409 45.3819C10.2701 45.4892 8.59975 45.4356 7.85515 45.449C7.71428 45.449 7.58684 45.4423 7.45268 45.4221C5.3061 45.288 3.60895 43.5102 3.60895 41.3232V40.9676L8.46559 40.9341C11.4641 41.0615 12.846 39.6125 13.2552 37.0766C13.2686 37.0296 13.2753 36.9827 13.282 36.929C13.3357 36.5332 13.3625 36.1106 13.3625 35.6611V33.8766C13.3625 33.7022 13.3625 33.5344 13.3692 33.3667V28.6774H14.0266L16.8574 28.6908C20.6206 28.7042 24.7998 28.3621 28.2745 31.1596C29.9381 32.4946 30.8504 34.1516 31.1255 37.3315V37.3382Z" fill="#E1EFFA"/>
</svg>
