<?xml version="1.0" encoding="UTF-8"?>
<svg id="Layer_2" data-name="Layer 2" xmlns="http://www.w3.org/2000/svg" viewBox="0 0 95.56 57.24">
  <defs>
    <style>
      .cls-1 {
        fill: #e1f0fc;
      }

      .cls-2 {
        fill: #31ae79;
      }
    </style>
  </defs>
  <g id="Layer_1-2" data-name="Layer 1">
    <path class="cls-2" d="M21.21,15.23c-1.29,10,.2,18.77,5.6,23.16,3.02,2.46,7.61,5.31,16.52,5.31-6.01-2.07-17.77-4.81-17.73-20.46.02-8.21,2.62-14.47,3.37-14.09,1.08.55,3.18,2.68,3.91,7.49,1.06,6.98-1.58,12.14-3.32,14.68,3.27-2.05,5.85-6.36,6.5-12.47.34-3.12.02-5.84-.97-9.26C33.31,3.41,29.8.6,28.04.03c-1.58-.52-5.75,6.76-6.83,15.2Z"/>
    <path class="cls-2" d="M37.11,26.63c2.54-3.6,5.98-4.33,6.04-2.86.07,1.4-1.19,5.28-5.45,8.72-1.32,1.07-3.85,2.05-6.49,2.62.15.29,7.69,1.11,12.42-3.19,5.29-4.81,5.25-12.16,4.11-12.94-1.5-1.04-5.78-.66-7.88,1.63-2.82,3.07-2.76,6.02-2.76,6.02Z"/>
    <path class="cls-1" d="M52.63,47.47v9.73h0c-.95,0-1.72-.77-1.72-1.72v-8.07c0-1.12.91-2.03,2.03-2.03h.17c.96,1.99,1.97,4.72,3.03,8.18.24.77.42,1.36.54,1.77.11-.36.24-.76.37-1.2.96-3.05,1.85-5.56,2.67-7.52.32-.75,1.06-1.24,1.87-1.24h.89v11.82h0c-.96,0-1.74-.78-1.74-1.74v-8.03c-.49,1.73-1.61,4.99-3.36,9.77h-.02c-.83,0-1.58-.51-1.89-1.28-.42-1.08-.89-2.34-1.39-3.79-.72-2.07-1.2-3.63-1.47-4.66Z"/>
    <path class="cls-1" d="M54.24,19.8h.21c1.42-1.58,2.19-2.17,4.69-2.37,3.3-.27,5.18,1.12,6.13,3.37,1.61-2.25,2.72-3.19,5.69-3.37,4.76-.29,6.83,2.69,6.83,8.08v11.33h0c-1.98,0-3.58-1.6-3.58-3.58v-6.96c0-2.08-.37-3.57-1.1-4.46-.74-.89-1.37-1.33-3.09-1.33s-2.7.76-4.11,2.29c.17.78.25,1.68.25,2.71v11.33h0c-1.98,0-3.58-1.6-3.58-3.58v-7.25c0-1.92-.38-3.31-1.15-4.19-.76-.87-1.4-1.31-3.09-1.31-.81,0-1.04.21-1.91.63-.86.42-1.5.92-1.92,1.5v14.21h0c-1.98,0-3.58-1.6-3.58-3.58v-15.34s1.1,0,1.1,0c1.1,0,2.05.79,2.24,1.88h0Z"/>
    <path class="cls-1" d="M72.16,53.32h-5.98c.09.82.39,1.47.9,1.95.51.48,1.16.72,1.96.72.5,0,1.01-.1,1.52-.3.5-.2,1.07.03,1.32.5h0c-.87.7-1.91,1.05-3.1,1.05-1.37,0-2.46-.43-3.27-1.29-.75-.8-1.12-1.84-1.12-3.14s.4-2.42,1.21-3.31c.73-.8,1.64-1.2,2.71-1.2,1.31,0,2.31.49,3.01,1.48.56.78.84,1.77.84,2.97v.56ZM66.13,52.06h4.39c-.03-.81-.23-1.44-.61-1.88-.38-.44-.89-.66-1.54-.66s-1.14.23-1.54.69c-.4.46-.64,1.08-.7,1.85Z"/>
    <path class="cls-1" d="M80.42,56.12h0c-.56.75-1.4,1.12-2.52,1.12-1.26,0-2.25-.46-2.97-1.38-.61-.77-.92-1.74-.92-2.91,0-1.54.45-2.74,1.34-3.59.72-.7,1.6-1.05,2.63-1.05.95,0,1.72.3,2.32.9v-2.6c0-.89.72-1.61,1.61-1.61h0v12.01h-.32c-.55,0-1.03-.37-1.17-.9ZM80.31,54.34v-3.36c-.09-.39-.33-.72-.74-1.01-.4-.29-.84-.43-1.3-.43-.76,0-1.38.3-1.85.9-.47.6-.71,1.37-.71,2.32,0,1.08.25,1.91.75,2.48.44.5,1,.75,1.68.75.47,0,.92-.16,1.34-.48.42-.32.69-.71.83-1.17Z"/>
    <path class="cls-1" d="M84.51,45.92c0-.26.09-.49.28-.67s.41-.28.67-.28.49.09.68.28.29.41.29.67-.09.5-.28.69c-.19.19-.42.28-.69.28s-.5-.09-.68-.28c-.18-.19-.27-.42-.27-.69ZM86.25,48.53v8.48h0c-.89,0-1.61-.72-1.61-1.61v-5.27c0-.89.72-1.61,1.61-1.61h0Z"/>
    <path class="cls-1" d="M95.47,48.53l-2.88,4.11,2.97,4.37h-.68c-.68,0-1.32-.34-1.7-.91l-1.53-2.3-1.62,2.34c-.38.55-1.01.88-1.67.88h-.71l3.16-4.32-2.67-4.17h.63c.71,0,1.37.37,1.74.98l1.18,1.95,1.39-2.04c.38-.56,1.01-.89,1.68-.89h.7Z"/>
    <path class="cls-1" d="M19.45,33.72c-2.4,2.09-4.42,3.13-7.24,3.13-4.11,0-7.3-1.58-9.55-4.75-1.77-2.51-2.66-5.53-2.66-9.04,0-4,1.1-7.41,3.3-10.24,2.17-2.74,4.93-4.11,8.27-4.11,1.9,0,3.1.4,4.79,1.21,1.57.75,2.13,2.7,1.17,4.15h0c-1.94-1.29-3.28-1.93-5.19-1.93-2.6,0-4.64,1.07-6.13,3.21-1.34,1.94-2.01,4.51-2.01,7.71s.84,5.71,2.53,7.63c1.54,1.77,3.54,2.66,6,2.66,1.12,0,1.67-.25,2.84-.74,1.41-.6,3.05-.16,3.89,1.12h0Z"/>
    <path class="cls-1" d="M43.02,11.76c0-.6.21-1.11.64-1.54s.94-.64,1.54-.64,1.12.21,1.56.64.66.94.66,1.54-.21,1.16-.64,1.59c-.43.43-.96.64-1.59.64s-1.15-.21-1.56-.64c-.41-.43-.62-.96-.62-1.59Z"/>
    <path class="cls-1" d="M88.68,17.43c-1.97,0-3.79.46-5.45,1.38-1.18.65-1.59,2.15-.93,3.33,1.61-1.19,3.35-1.79,5.21-1.79,2.92,0,4.41,1.46,4.37,3.95h-2.21c-3.14,0-4.37.56-6.08,1.69-1.71,1.12-2.56,3.32-2.56,5.41,0,1.83.56,3.29,1.69,4.35,1.13,1.07,2.66,1.6,4.6,1.6,2.18,0,3.91-1.48,3.15-3.93-.61.61-1.14.85-2.08.92-1.98.15-3.44-1.25-3.47-3.23-.03-1.95,1.45-3.67,3.5-4.09.87-.18,3.49-.57,3.49-.57,0,0,.02,2.84-.01,3.8,0,0,0,.02,0,.03h0c-.02,1.47-.09,3.29.31,4.62.19.64.89,1.82,2.42,1.95.2.02.79,0,.79,0v-11.38c0-5.36-2.25-8.04-6.75-8.04Z"/>
  </g>
</svg>