<svg width="394" height="1547" viewBox="0 0 394 1547" fill="none" xmlns="http://www.w3.org/2000/svg">
<g opacity="0.2">
<path d="M337.962 20.7159C336.855 18.8747 335.02 17.5871 332.913 17.1602C328.583 16.0995 324.221 18.7546 323.16 23.0775C323.134 23.1709 323.114 23.2709 323.094 23.3643C322.487 25.4523 322.833 27.7004 324.047 29.5016C325.188 31.4429 327.076 32.8238 329.264 33.3308C331.425 33.8311 333.693 33.4108 335.527 32.17C337.435 31.0426 338.789 29.1747 339.263 27.0066C339.67 24.8185 339.196 22.5571 337.955 20.7092L337.962 20.7159Z" fill="url(#paint0_linear_13_15)"/>
<path d="M253.493 70.1349C272.251 110.195 307.511 147.199 335.534 156.458C356.706 165.264 380.48 166.031 402.372 158.606C381.627 153.523 338.709 162.089 287.253 89.8947C271.57 67.7401 263.326 36.5597 266.394 36.5263C284.551 41.2027 300.1 52.7169 309.779 68.6473C325.448 95.2648 324.794 110.948 329.55 124.991C335.747 104.931 333.846 83.3437 324.254 64.8382C318.397 51.6428 310.486 39.4748 300.801 28.7678C284.371 9.50849 252.94 -1.66539 245.355 0.202503C237.771 2.0704 241.527 44.4915 253.493 70.1416V70.1349Z" fill="url(#paint1_linear_13_15)"/>
<path d="M341.13 89.1407C345.926 73.3837 357.493 61.4826 360.755 66.0389C366.631 78.9007 367.465 93.5036 363.083 106.946C358.047 120.315 343.672 124.951 346.56 134.958L358.647 127.313C370.2 120.862 378.151 109.454 380.193 96.3788C386.223 70.295 372.655 44.0044 367.319 43.8176C355.372 47.0998 345.853 56.1258 341.944 67.8868C337.782 83.2435 341.13 89.1407 341.13 89.1407Z" fill="url(#paint2_linear_13_15)"/>
</g>
<g opacity="0.1">
<path d="M417.667 850.701C417.42 843.869 414.545 837.452 409.743 833.016C400.15 823.369 385.235 823.956 376.43 834.336C376.237 834.57 376.043 834.803 375.857 835.037C371.354 839.887 369.086 846.678 369.66 853.569C369.847 860.72 372.735 867.485 377.644 872.281C382.467 877.018 388.877 879.373 395.328 878.766C401.805 878.599 407.902 875.503 412.164 870.227C416.286 864.776 418.261 857.765 417.674 850.707L417.667 850.701Z" fill="url(#paint3_linear_13_15)"/>
<path d="M131.057 841.621C122.098 974.008 160.14 1122.34 219.274 1187.32C261.358 1241.18 321.673 1277.7 388.871 1290C342.565 1246.54 219.401 1206.71 189.964 942.494C181.199 861.574 204.592 767.752 212.577 772.129C252.793 810.767 276.46 863.562 278.615 919.432C280.949 1012.05 256.782 1052.27 248.938 1096.03C293.703 1052.37 319.738 992.953 321.479 930.446C325.261 887.311 322.26 843.869 312.594 801.708C297.746 727.293 232.575 652.33 210.302 646.219C188.03 640.115 136.92 756.919 131.064 841.614L131.057 841.621Z" fill="url(#paint4_linear_13_15)"/>
<path d="M334.733 1000.76C372.168 970.425 414.786 964.809 412.364 983.688C399.504 1029.74 374.349 1069.32 341.884 1094.56C308.378 1118.18 273.945 1098.91 260.897 1131.08L296.705 1137.6C329.357 1146.05 364.543 1133.83 392.106 1104.45C450.626 1050.09 474.099 952.581 464.801 940.486C437.225 922.994 403.539 925.643 375.009 947.544C339.456 978.217 334.733 1000.77 334.733 1000.77V1000.76Z" fill="url(#paint5_linear_13_15)"/>
</g>
<g opacity="0.35">
<path d="M271.331 1272.56C271.331 1269.2 272.665 1266.01 274.993 1263.74C279.635 1258.85 287.12 1258.88 291.716 1263.8C291.816 1263.91 291.916 1264.03 292.016 1264.14C294.357 1266.44 295.611 1269.73 295.445 1273.12C295.478 1276.63 294.144 1280 291.769 1282.44C289.435 1284.85 286.259 1286.11 283.017 1285.93C279.769 1285.96 276.654 1284.55 274.433 1282.03C272.271 1279.43 271.157 1276.03 271.331 1272.56Z" fill="url(#paint6_linear_13_15)"/>
<path d="M413.766 1270.6C420.323 1339.26 404.04 1417.13 376.037 1452.08C356.233 1480.9 327.183 1501.07 294.357 1508.78C316.41 1485.28 376.291 1462.15 386.463 1324.2C389.452 1281.95 376.431 1233.63 372.575 1236.05C353.438 1256.93 342.665 1284.85 342.518 1313.94C342.878 1362.14 355.412 1382.58 359.981 1405.19C337.268 1383.36 323.507 1352.98 321.633 1320.51C319.071 1298.15 319.838 1275.51 323.907 1253.39C329.991 1214.41 360.802 1174.15 371.648 1170.54C382.494 1166.93 409.516 1226.67 413.772 1270.6H413.766Z" fill="url(#paint7_linear_13_15)"/>
<path d="M318.951 1366.59C301.034 1349.38 277.527 1342.79 276.86 1351.51C279.168 1373.44 289.141 1393.63 304.79 1408.07C321.199 1421.89 342.771 1416.51 346.68 1432.22L325.715 1431.74C306.324 1432.42 287.733 1423.56 275.306 1407.73C248.05 1377.71 245.282 1331.63 251.853 1327.09C269.343 1321.86 288.12 1326.26 301.901 1338.83C318.711 1356.01 318.951 1366.59 318.951 1366.59Z" fill="url(#paint8_linear_13_15)"/>
</g>
<g opacity="0.42">
<path d="M315.068 1319.74C316.156 1316.15 318.73 1313.23 322.166 1311.7C329.13 1308.2 337.795 1311.04 341.523 1318.03C341.603 1318.19 341.684 1318.35 341.764 1318.5C343.731 1321.84 344.125 1325.82 342.838 1329.37C341.737 1333.14 339.109 1336.24 335.567 1337.95C332.085 1339.65 327.996 1339.81 324.3 1338.39C320.525 1337.21 317.376 1334.54 315.609 1331.02C313.948 1327.43 313.754 1323.38 315.075 1319.73L315.068 1319.74Z" fill="#016C7F"/>
<path d="M446.991 1364.59C436.011 1421.99 402.565 1480.29 369.246 1500.53C344.672 1518.17 314.041 1526.15 283.11 1522.98C308.365 1510.3 367.005 1508.75 409.729 1400.11C422.703 1366.81 422.99 1324 418.988 1324.87C396.955 1336.27 380.599 1355.75 373.349 1379.23C361.889 1418.31 367.979 1438.43 366.491 1458.02C351.73 1433.86 346.98 1405.35 353.264 1378.56C356.466 1359.75 362.676 1341.66 371.681 1324.95C386.596 1295.17 423.697 1271.44 434.177 1271.63C444.656 1271.82 453.961 1327.86 446.991 1364.6V1364.59Z" fill="#016C7F"/>
<path d="M339.463 1415C327.963 1396 308.952 1384 306.237 1390.86C302.895 1409.24 306.697 1428.39 316.89 1444.52C327.903 1460.34 348.134 1462.12 347.721 1475.92L329.457 1469.58C312.287 1464.63 298.146 1452.2 291.122 1435.86C274.565 1403.86 283.41 1365.83 290.281 1364.01C306.904 1364.74 322.293 1373.64 331.305 1387.71C341.844 1406.37 339.463 1415 339.463 1415Z" fill="#016C7F"/>
</g>
<g opacity="0.39">
<path d="M216.772 1207.33C216.652 1201.12 213.771 1195.27 208.834 1191.24C198.989 1182.46 183.387 1182.98 173.975 1192.4C173.768 1192.61 173.561 1192.82 173.361 1193.04C168.558 1197.45 166.05 1203.63 166.517 1209.89C166.57 1216.39 169.459 1222.54 174.495 1226.91C179.444 1231.23 186.102 1233.37 192.859 1232.82C199.636 1232.68 206.073 1229.87 210.629 1225.07C215.045 1220.12 217.253 1213.75 216.772 1207.33V1207.33Z" fill="url(#paint9_linear_13_15)"/>
<path d="M17.3849 1216.11C11.5549 1312.53 34.5414 1421.12 70.6888 1469.19C96.3968 1508.95 133.345 1536.27 174.575 1546.02C146.252 1513.8 70.7221 1483.32 53.3055 1290.34C48.1225 1231.24 62.7242 1163.11 67.6137 1166.39C92.2078 1195.03 106.616 1233.8 107.797 1274.56C108.997 1342.11 94.0622 1371.15 89.1327 1402.98C116.728 1371.66 132.864 1328.64 134.085 1283.09C136.513 1251.68 134.779 1219.98 128.949 1189.13C120.017 1134.7 80.1876 1079.29 66.5264 1074.58C52.8653 1069.87 21.1871 1154.44 17.3849 1216.12V1216.11Z" fill="url(#paint10_linear_13_15)"/>
<path d="M132.097 1347.91C159.92 1322.94 196.848 1312.58 198.122 1324.76C195.047 1355.61 179.838 1384.38 155.511 1405.37C129.969 1425.52 95.8032 1419.01 90.0332 1441.21L123.099 1439.53C153.71 1439.57 182.82 1426.27 202.024 1403.48C244.248 1360.1 247.43 1295.4 236.951 1289.33C209.215 1282.84 179.704 1289.91 158.279 1308.18C132.197 1333.06 132.091 1347.91 132.091 1347.91L132.097 1347.91Z" fill="url(#paint11_linear_13_15)"/>
</g>
<g opacity="0.54">
<path d="M223.169 1147.41C223.316 1145.49 224.263 1143.73 225.777 1142.55C228.806 1139.98 233.355 1140.34 235.93 1143.37C235.99 1143.44 236.043 1143.51 236.096 1143.58C237.417 1145 238.038 1146.93 237.791 1148.86C237.657 1150.86 236.703 1152.73 235.156 1154.01C233.635 1155.27 231.654 1155.84 229.693 1155.59C227.718 1155.45 225.891 1154.5 224.65 1152.96C223.449 1151.37 222.922 1149.38 223.176 1147.41H223.169Z" fill="#176C7F"/>
<path d="M310.339 1153.07C311.386 1192.54 298.052 1236.17 279.388 1254.77C266.014 1270.27 247.343 1280.39 226.905 1283.22C241.426 1270.87 279.108 1260.54 291.295 1182.34C294.95 1158.39 289.06 1130.2 286.599 1131.4C273.978 1142.4 266.174 1157.81 264.82 1174.39C262.959 1201.9 269.749 1214.16 271.57 1227.27C258.603 1213.74 251.485 1195.75 251.739 1177.14C251.138 1164.27 252.586 1151.39 256.028 1138.97C261.438 1117.03 282.049 1095.53 288.853 1093.99C295.651 1092.45 309.625 1127.81 310.332 1153.07H310.339Z" fill="#176C7F"/>
<path d="M250.438 1203.53C241.84 1193.02 229.826 1188.35 229.086 1193.29C229.306 1205.89 233.608 1217.78 241.153 1226.63C249.117 1235.14 260.651 1232.91 261.991 1242.02L251.038 1240.92C240.859 1240.56 231.527 1234.79 225.731 1225.28C212.823 1207.11 213.45 1180.73 217.099 1178.4C226.491 1176.09 236.123 1179.34 242.767 1187.03C250.792 1197.48 250.438 1203.53 250.438 1203.53Z" fill="#176C7F"/>
</g>
<g opacity="0.73">
<path d="M58.9692 1430.72C58.4689 1429.49 57.475 1428.54 56.2343 1428.09C53.6995 1427.03 50.7912 1428.24 49.7439 1430.77C49.7239 1430.83 49.6972 1430.89 49.6772 1430.95C49.1102 1432.16 49.1102 1433.56 49.6772 1434.78C50.1908 1436.06 51.2047 1437.09 52.4921 1437.6C53.7595 1438.11 55.1803 1438.07 56.4144 1437.48C57.6818 1436.97 58.6823 1435.96 59.176 1434.69C59.6296 1433.4 59.5562 1431.98 58.9692 1430.73V1430.72Z" fill="#176C7F"/>
<path d="M2.90994 1452.87C10.5677 1479.02 28.5513 1504.86 44.7405 1513.12C56.8008 1520.47 71.2024 1523.17 85.2237 1520.71C73.0768 1515.66 46.1414 1516.84 21.6073 1468.07C14.1431 1453.11 12.0485 1433.35 13.9229 1433.62C24.5357 1438.17 32.9204 1446.65 37.3163 1457.25C44.3536 1474.92 42.4859 1484.41 44.0601 1493.41C49.7167 1481.78 50.5905 1468.46 46.4882 1456.3C44.1602 1447.72 40.4915 1439.57 35.602 1432.14C27.4106 1418.87 9.32691 1409.11 4.5375 1409.54C-0.251908 1409.97 -1.95284 1436.14 2.91662 1452.88L2.90994 1452.87Z" fill="#176C7F"/>
<path d="M52.919 1473.34C56.3476 1464.62 63.2449 1459.01 64.7791 1462.11C67.3006 1470.43 66.987 1479.15 63.9052 1486.55C60.4699 1493.83 52.4253 1494.8 53.4726 1501.07L60.4366 1498.03C67.0471 1495.64 71.9565 1489.88 73.7509 1482.41C78.3869 1467.75 72.3968 1450.55 69.5085 1449.79C62.8513 1450.26 57.2147 1454.42 54.4732 1460.89C51.4114 1469.45 52.919 1473.34 52.919 1473.34Z" fill="#176C7F"/>
</g>
<g opacity="0.57">
<path d="M263.793 1460.78C264.734 1459.39 265.047 1457.66 264.654 1456.02C263.98 1452.6 260.658 1450.37 257.236 1451.05C257.163 1451.06 257.082 1451.08 257.009 1451.09C255.328 1451.35 253.841 1452.34 252.96 1453.8C251.96 1455.24 251.599 1457.04 251.96 1458.77C252.313 1460.47 253.36 1461.94 254.848 1462.84C256.275 1463.82 258.05 1464.16 259.744 1463.79C261.432 1463.36 262.886 1462.27 263.786 1460.78H263.793Z" fill="url(#paint12_linear_13_15)"/>
<path d="M212.677 1427.35C195.814 1447.43 184.708 1475.63 186.715 1493.01C187.256 1506.59 192.772 1519.57 202.218 1529.49C199.783 1517.06 184.481 1496.12 210.469 1450.43C218.467 1436.47 233.182 1424.25 233.963 1425.9C235.977 1436.83 233.662 1448.07 227.505 1457.25C217.099 1472.32 208.508 1475.88 202.144 1481.94C214.471 1480.27 225.604 1473.86 233.162 1464.08C238.799 1457.63 243.368 1450.34 246.71 1442.46C252.967 1428.82 251.146 1409.13 248.251 1405.52C245.356 1401.91 223.483 1414.52 212.677 1427.35V1427.35Z" fill="url(#paint13_linear_13_15)"/>
<path d="M224.304 1479.21C233.969 1477.86 243.248 1481.11 241.614 1484C236.164 1490.37 228.519 1494.46 220.201 1495.46C211.763 1496.08 205.686 1489.51 201.024 1493.57L208.148 1498.16C214.491 1502.76 222.609 1504.19 230.147 1502.02C245.676 1498.75 256.422 1484.89 255.195 1481.97C250.452 1476.37 243.228 1473.51 235.93 1474.34C226.638 1475.93 224.297 1479.21 224.297 1479.21L224.304 1479.21Z" fill="url(#paint14_linear_13_15)"/>
</g>
<defs>
<linearGradient id="paint0_linear_13_15" x1="403.638" y1="136.06" x2="293.42" y2="-32.3125" gradientUnits="userSpaceOnUse">
<stop stop-color="#016C7F"/>
<stop offset="1" stop-color="#15B47A"/>
</linearGradient>
<linearGradient id="paint1_linear_13_15" x1="359.78" y1="164.766" x2="249.559" y2="-3.59771" gradientUnits="userSpaceOnUse">
<stop stop-color="#016C7F"/>
<stop offset="1" stop-color="#15B47A"/>
</linearGradient>
<linearGradient id="paint2_linear_13_15" x1="393.074" y1="142.975" x2="282.856" y2="-25.3976" gradientUnits="userSpaceOnUse">
<stop stop-color="#016C7F"/>
<stop offset="1" stop-color="#15B47A"/>
</linearGradient>
<linearGradient id="paint3_linear_13_15" x1="220.806" y1="721.737" x2="532.045" y2="957.332" gradientUnits="userSpaceOnUse">
<stop stop-color="#004C6D"/>
<stop offset="1" stop-color="#0B2849"/>
</linearGradient>
<linearGradient id="paint4_linear_13_15" x1="107.325" y1="869.708" x2="390.734" y2="1113.55" gradientUnits="userSpaceOnUse">
<stop stop-color="#004C6D"/>
<stop offset="1" stop-color="#0B2849"/>
</linearGradient>
<linearGradient id="paint5_linear_13_15" x1="171.575" y1="758.331" x2="420.343" y2="1016.46" gradientUnits="userSpaceOnUse">
<stop stop-color="#004C6D"/>
<stop offset="1" stop-color="#0B2849"/>
</linearGradient>
<linearGradient id="paint6_linear_13_15" x1="282.166" y1="1281.25" x2="291.21" y2="1257.15" gradientUnits="userSpaceOnUse">
<stop stop-color="#15B47A"/>
<stop offset="0.53" stop-color="#41B972"/>
<stop offset="1" stop-color="#6DBF6B"/>
</linearGradient>
<linearGradient id="paint7_linear_13_15" x1="298.354" y1="1506.3" x2="420.37" y2="1184.58" gradientUnits="userSpaceOnUse">
<stop stop-color="#15B47A"/>
<stop offset="0.53" stop-color="#41B972"/>
<stop offset="1" stop-color="#6DBF6B"/>
</linearGradient>
<linearGradient id="paint8_linear_13_15" x1="287.365" y1="1416.87" x2="317.89" y2="1335.49" gradientUnits="userSpaceOnUse">
<stop stop-color="#15B47A"/>
<stop offset="0.53" stop-color="#41B972"/>
<stop offset="1" stop-color="#6DBF6B"/>
</linearGradient>
<linearGradient id="paint9_linear_13_15" x1="55.2219" y1="686.887" x2="249.747" y2="1436.05" gradientUnits="userSpaceOnUse">
<stop stop-color="#016E7E"/>
<stop offset="1" stop-color="#6FC182"/>
</linearGradient>
<linearGradient id="paint10_linear_13_15" x1="-67.6254" y1="718.792" x2="126.9" y2="1467.94" gradientUnits="userSpaceOnUse">
<stop stop-color="#016E7E"/>
<stop offset="1" stop-color="#6FC182"/>
</linearGradient>
<linearGradient id="paint11_linear_13_15" x1="-10.1569" y1="703.865" x2="184.374" y2="1453.02" gradientUnits="userSpaceOnUse">
<stop stop-color="#016E7E"/>
<stop offset="1" stop-color="#6FC182"/>
</linearGradient>
<linearGradient id="paint12_linear_13_15" x1="210.282" y1="1556.83" x2="275.564" y2="1428.71" gradientUnits="userSpaceOnUse">
<stop stop-color="#15B47A"/>
<stop offset="0.53" stop-color="#41B972"/>
<stop offset="1" stop-color="#6DBF6B"/>
</linearGradient>
<linearGradient id="paint13_linear_13_15" x1="188.307" y1="1518.07" x2="237.72" y2="1421.09" gradientUnits="userSpaceOnUse">
<stop stop-color="#15B47A"/>
<stop offset="0.53" stop-color="#41B972"/>
<stop offset="1" stop-color="#6DBF6B"/>
</linearGradient>
<linearGradient id="paint14_linear_13_15" x1="210.355" y1="1528.54" x2="259.763" y2="1431.56" gradientUnits="userSpaceOnUse">
<stop stop-color="#15B47A"/>
<stop offset="0.53" stop-color="#41B972"/>
<stop offset="1" stop-color="#6DBF6B"/>
</linearGradient>
</defs>
</svg>
