<svg width="26" height="39" viewBox="0 0 26 39" fill="none" xmlns="http://www.w3.org/2000/svg">
<path d="M22.7889 0H14.8727C9.11845 0 4.41166 4.70689 4.41166 10.4616V36.0927C4.41166 37.6976 5.71426 39 7.319 39C8.92373 39 10.2263 37.6976 10.2263 36.0927V12.8187C10.2599 7.85636 12.1063 5.81491 15.9537 5.81491H22.7889C24.3802 5.81491 25.6761 4.5325 25.6962 2.94106C25.7164 1.32276 24.407 0 22.7889 0Z" fill="#2FAD78"/>
<path d="M18.7532 17.8414H3.08191C1.37983 17.8414 0 19.2213 0 20.9235V20.9304C0 22.6326 1.37983 24.0124 3.08191 24.0124H18.7532C20.4553 24.0124 21.8351 22.6326 21.8351 20.9304V20.9235C21.8351 19.2213 20.4553 17.8414 18.7532 17.8414Z" fill="#2FAD78"/>
</svg>
