<svg width="38" height="40" viewBox="0 0 38 40" fill="none" xmlns="http://www.w3.org/2000/svg">
<path d="M31.7449 37.3069C31.9931 41.1094 37.7801 40.7809 37.7801 36.9651V23.2038C37.7801 17.3559 32.838 11.4409 26.7961 11.4409H23.8121C17.7702 11.4409 12.8281 17.3559 12.8281 23.2038V36.1199C12.8281 36.5625 12.8482 36.9853 12.8884 37.3944C13.2506 41.1231 18.8834 40.7273 18.8834 36.9785V23.7267C18.8834 20.1791 21.7601 17.3089 25.3007 17.3089C29.0761 17.3089 31.7181 20.3604 31.7181 24.136C31.7181 24.136 31.8187 32.787 31.7181 36.0999C31.7047 36.5157 31.7181 36.9248 31.7382 37.3138L31.7449 37.3069Z" fill="#2FAD78"/>
<path d="M1.16039 36.6497C1.16039 36.8174 1.16037 36.985 1.17378 37.1527C1.38166 41.0557 7.22235 40.8948 7.22235 36.985C7.22235 36.985 7.22908 14.7201 7.19555 14.1836C6.96085 10.3543 1.1872 10.6294 1.1872 14.4587L1.16039 36.6497Z" fill="#2FAD78"/>
<path d="M0 4.178C0 3.03123 0.409061 2.04547 1.22716 1.2273C2.04526 0.409136 3.03102 0 4.17769 0C5.32437 0 6.3235 0.409136 7.16842 1.2273C8.01334 2.04547 8.44252 3.03123 8.44252 4.178C8.44252 5.32478 8.03346 6.39109 7.21537 7.20926C6.39727 8.02742 5.38469 8.43656 4.18437 8.43656C2.98404 8.43656 1.98491 8.02742 1.19364 7.20926C0.402363 6.39109 0.00671227 5.37843 0.00671227 4.178H0Z" fill="#E0EFFB"/>
</svg>
