<svg width="35" height="35" viewBox="0 0 35 35" fill="none" xmlns="http://www.w3.org/2000/svg">
<path d="M24.5814 0H10.4155C4.68632 0 0 4.68675 0 10.4164V24.5835C0 30.3131 4.68632 34.9999 10.4155 34.9999H24.5814C30.3106 34.9999 34.9969 30.3131 34.9969 24.5835V10.4164C34.9969 4.68675 30.3106 0 24.5814 0ZM29.2142 22.2435C29.2142 26.0811 26.0789 29.2168 22.2416 29.2168H12.762C8.92473 29.2168 5.78938 26.0811 5.78938 22.2435V12.763C5.78938 8.92535 8.92473 5.78995 12.762 5.78995H22.2416C26.0789 5.78995 29.2142 8.92535 29.2142 12.763V22.2435Z" fill="#2FAD78"/>
<path d="M13.4639 17.4631C13.4639 16.3666 13.8584 15.4238 14.6405 14.6416C15.4227 13.8593 16.3653 13.465 17.4617 13.465C18.558 13.465 19.514 13.8593 20.3229 14.6416C21.1318 15.4238 21.5396 16.3666 21.5396 17.4631C21.5396 18.5596 21.1452 19.5824 20.363 20.3646C19.5809 21.1468 18.6115 21.5415 17.4617 21.5415C16.3118 21.5415 15.3558 21.1468 14.6004 20.3646C13.845 19.5824 13.4639 18.613 13.4639 17.4631Z" fill="#E0EFFB"/>
<path d="M24.0199 13.9129C25.3896 13.9129 26.5 12.8024 26.5 11.4325C26.5 10.0627 25.3896 8.95217 24.0199 8.95217C22.6501 8.95217 21.5396 10.0627 21.5396 11.4325C21.5396 12.8024 22.6501 13.9129 24.0199 13.9129Z" fill="#2FAD78"/>
</svg>
